<svg xmlns="http://www.w3.org/2000/svg" viewBox="0 0 239.63 91.97"><path d="M25.27 26.14h-6.02l-1.3 4.77h-3.76l5.94-18.56h4.36l5.97 18.56h-3.89l-1.3-4.77zm-.8-2.88l-.55-2.03c-.58-1.93-1.08-4.06-1.63-6.07h-.1c-.48 2.03-1.03 4.14-1.58 6.07l-.55 2.03h4.41zm10.15 2.38v-8.78h3.69v8.3c0 2.18.6 2.93 1.95 2.93 1.15 0 1.91-.5 2.86-1.76v-9.48h3.69V30.9H43.8l-.28-2.01h-.1c-1.2 1.43-2.56 2.36-4.49 2.36-3.01.01-4.31-2.1-4.31-5.61zm17.7 7.75c0-1.18.73-2.18 2.01-2.91v-.13c-.73-.48-1.28-1.2-1.28-2.36 0-1.05.73-2.03 1.56-2.63v-.1c-.95-.7-1.86-2.03-1.86-3.66 0-3.31 2.68-5.09 5.67-5.09.78 0 1.53.15 2.11.35h5.07v2.71h-2.41c.38.48.65 1.25.65 2.13 0 3.16-2.41 4.77-5.42 4.77-.55 0-1.2-.13-1.81-.33-.4.33-.6.65-.6 1.2 0 .75.55 1.15 2.21 1.15h2.38c3.39 0 5.22 1.05 5.22 3.51 0 2.83-2.93 4.99-7.62 4.99-3.32.01-5.88-1.12-5.88-3.6zm9.98-.75c0-1-.83-1.25-2.33-1.25h-1.7c-.85 0-1.45-.08-1.96-.2-.63.5-.93 1.05-.93 1.63 0 1.18 1.3 1.86 3.36 1.86 2.1-.01 3.56-.94 3.56-2.04zM60.59 21.6c0-1.65-.93-2.58-2.18-2.58s-2.21.93-2.21 2.58c0 1.66.98 2.58 2.21 2.58s2.18-.92 2.18-2.58zm17.44-.05c0-6.42 2.51-9.56 6.3-9.56 3.76 0 6.27 3.16 6.27 9.56 0 6.39-2.51 9.71-6.27 9.71-3.79 0-6.3-3.31-6.3-9.71zm9.08 0c0-5.19-1.2-6.7-2.79-6.7-1.61 0-2.81 1.51-2.81 6.7 0 5.22 1.2 6.82 2.81 6.82 1.59 0 2.79-1.6 2.79-6.82zm21.16 4.54h-2.21v4.82h-3.44v-4.82h-7.9v-2.51l6.92-11.24h4.42v10.93h2.21v2.82zm-5.64-2.81v-3.79c0-1.08.1-2.76.15-3.84h-.1c-.45.98-.95 2.01-1.48 3.01l-2.89 4.61h4.32zM25.27 69.12h-6.02l-1.3 4.77h-3.76l5.94-18.56h4.36l5.97 18.56h-3.89l-1.3-4.77zm-.8-2.89l-.55-2.03c-.58-1.93-1.08-4.06-1.63-6.07h-.1c-.48 2.03-1.03 4.14-1.58 6.07l-.55 2.03h4.41zm10.15 2.38v-8.78h3.69v8.3c0 2.18.6 2.93 1.95 2.93 1.15 0 1.91-.5 2.86-1.76v-9.48h3.69v14.05H43.8l-.28-2.01h-.1c-1.2 1.43-2.56 2.36-4.49 2.36-3.01.01-4.31-2.1-4.31-5.61zm17.7 7.75c0-1.18.73-2.18 2.01-2.91v-.13c-.73-.48-1.28-1.2-1.28-2.36 0-1.05.73-2.03 1.56-2.63v-.1c-.95-.7-1.86-2.03-1.86-3.66 0-3.31 2.68-5.09 5.67-5.09.78 0 1.53.15 2.11.35h5.07v2.71h-2.41c.38.48.65 1.25.65 2.13 0 3.16-2.41 4.77-5.42 4.77-.55 0-1.2-.13-1.81-.33-.4.33-.6.65-.6 1.2 0 .75.55 1.15 2.21 1.15h2.38c3.39 0 5.22 1.05 5.22 3.51 0 2.83-2.93 4.99-7.62 4.99-3.32.02-5.88-1.11-5.88-3.6zm9.98-.75c0-1-.83-1.25-2.33-1.25h-1.7c-.85 0-1.45-.08-1.96-.2-.63.5-.93 1.05-.93 1.63 0 1.18 1.3 1.86 3.36 1.86 2.1-.01 3.56-.94 3.56-2.04zm-1.71-11.04c0-1.65-.93-2.58-2.18-2.58s-2.21.93-2.21 2.58c0 1.66.98 2.58 2.21 2.58 1.23.01 2.18-.92 2.18-2.58zm17.42 7.18c5.04-4.51 8.03-8 8.03-10.86 0-1.88-1.03-3.01-2.78-3.01-1.36 0-2.48.88-3.41 1.91l-2.01-2.01c1.71-1.8 3.36-2.81 5.89-2.81 3.51 0 5.84 2.26 5.84 5.72 0 3.36-2.78 6.97-6.17 10.28.93-.1 2.16-.2 3.01-.2h4.04v3.11H78.01v-2.13zm18.25-.85h3.99V59.16h-3.36v-2.28c1.86-.35 3.14-.83 4.31-1.55h2.73V70.9h3.49v2.98H96.26V70.9zm16.44-5.52h6.85v2.64h-6.85v-2.64zm29.74 3.74h-6.02l-1.3 4.77h-3.76l5.94-18.56h4.36l5.97 18.56h-3.89l-1.3-4.77zm-.8-2.89l-.55-2.03c-.58-1.93-1.08-4.06-1.63-6.07h-.1c-.48 2.03-1.03 4.14-1.58 6.07l-.55 2.03h4.41zm10.14 2.38v-8.78h3.69v8.3c0 2.18.6 2.93 1.95 2.93 1.15 0 1.91-.5 2.86-1.76v-9.48h3.69v14.05h-3.01l-.28-2.01h-.1c-1.2 1.43-2.56 2.36-4.49 2.36-3 .01-4.31-2.1-4.31-5.61zm17.7 7.75c0-1.18.73-2.18 2.01-2.91v-.13c-.73-.48-1.28-1.2-1.28-2.36 0-1.05.73-2.03 1.56-2.63v-.1c-.95-.7-1.86-2.03-1.86-3.66 0-3.31 2.68-5.09 5.67-5.09.78 0 1.53.15 2.11.35h5.07v2.71h-2.41c.38.48.65 1.25.65 2.13 0 3.16-2.41 4.77-5.42 4.77-.55 0-1.2-.13-1.81-.33-.4.33-.6.65-.6 1.2 0 .75.55 1.15 2.21 1.15h2.38c3.39 0 5.22 1.05 5.22 3.51 0 2.83-2.93 4.99-7.62 4.99-3.32.02-5.88-1.11-5.88-3.6zm9.99-.75c0-1-.83-1.25-2.33-1.25h-1.7c-.85 0-1.45-.08-1.96-.2-.63.5-.93 1.05-.93 1.63 0 1.18 1.3 1.86 3.36 1.86 2.1-.01 3.56-.94 3.56-2.04zm-1.71-11.04c0-1.65-.93-2.58-2.18-2.58s-2.21.93-2.21 2.58c0 1.66.98 2.58 2.21 2.58 1.23.01 2.18-.92 2.18-2.58zm17.42 7.18c5.04-4.51 8.03-8 8.03-10.86 0-1.88-1.03-3.01-2.78-3.01-1.36 0-2.48.88-3.41 1.91L195 57.78c1.71-1.8 3.36-2.81 5.89-2.81 3.51 0 5.84 2.26 5.84 5.72 0 3.36-2.78 6.97-6.17 10.28.93-.1 2.16-.2 3.01-.2h4.04v3.11h-12.44v-2.13zm30.26-2.69h-2.21v4.82h-3.44v-4.82h-7.9v-2.51l6.92-11.24h4.42v10.93h2.21v2.82zm-5.64-2.81v-3.79c0-1.08.1-2.76.15-3.84h-.1c-.45.98-.95 2.01-1.48 3.01l-2.89 4.61h4.32z" fill="#fff"/></svg>