<svg xmlns="http://www.w3.org/2000/svg" viewBox="0 0 268.01 195.62"><path d="M37.69 72.38c0-10.31 5.83-16.14 14.41-16.14s14.41 5.87 14.41 16.14c0 10.31-5.83 16.48-14.41 16.48s-14.41-6.17-14.41-16.48zm21.12 0c0-6.08-2.58-9.68-6.72-9.68s-6.68 3.59-6.68 9.68c0 6.13 2.54 9.97 6.68 9.97s6.72-3.84 6.72-9.97zm13.55-15.55h11.03c6.93 0 12.63 2.45 12.63 10.23 0 7.48-5.79 10.77-12.42 10.77h-3.68v10.44h-7.56V56.83zm10.86 15.04c3.68 0 5.45-1.73 5.45-4.82 0-3.17-2.03-4.27-5.66-4.27h-3.08v9.09h3.29zm18.18-15.04h19.95v6.25h-12.38v5.83h10.52v6.34h-10.52v6.67h12.85v6.34H101.4V56.83zm26.64 0h7.69l7.82 15.04 3.08 6.97h.21c-.42-3.34-1.01-7.86-1.01-11.62V56.83h7.18v31.44h-7.69l-7.77-15.17-3.08-6.89h-.21c.34 3.51.97 7.82.97 11.62v10.44h-7.18V56.83zm32.3 0h7.56v11.96h10.35V56.83h7.48v31.44h-7.48V75.34H167.9v12.93h-7.56V56.83zm31.28 15.89c0-10.48 7.01-16.48 15-16.48 4.1 0 7.4 1.9 9.55 4.1l-3.97 4.82c-1.57-1.44-3.21-2.45-5.45-2.45-4.06 0-7.39 3.63-7.39 9.76 0 6.25 2.87 9.89 7.31 9.89 2.49 0 4.52-1.27 6-2.87l3.97 4.73c-2.66 3.09-6.17 4.65-10.27 4.65-7.98-.01-14.75-5.5-14.75-16.15zm29.64-15.89h7.57v31.44h-7.57V56.83zm-60.8 76.29V139H141.4v-.81c1.75-2.13 3.75-4.84 6-8.11 2.25-3.27 3.67-5.59 4.26-6.96.59-1.38.89-2.71.89-4 0-1.13-.38-2.1-1.13-2.91-.75-.81-1.65-1.22-2.71-1.22-2.11 0-4.42 1.2-6.94 3.59v-6.05c2.82-1.83 5.51-2.75 8.07-2.75 2.84 0 5.07.73 6.7 2.19s2.45 3.46 2.45 6.01c0 3.48-2.61 8.53-7.82 15.13h9.29zm13.69-23.33c3.06 0 5.44 1.31 7.15 3.94s2.57 6.2 2.57 10.71c0 4.69-.83 8.35-2.5 10.98-1.67 2.63-4.05 3.94-7.14 3.94-3.14 0-5.58-1.31-7.32-3.92s-2.61-6.23-2.61-10.86c0-4.68.88-8.32 2.65-10.91 1.77-2.58 4.17-3.88 7.2-3.88zm0 24.18c1.16 0 2-.7 2.52-2.1.52-1.4.78-4.02.78-7.87 0-3.21-.26-5.48-.77-6.81s-1.37-1.99-2.57-1.99c-1.17 0-2.03.65-2.57 1.95-.54 1.3-.82 3.88-.82 7.73 0 3.23.27 5.55.82 6.96.54 1.42 1.41 2.13 2.61 2.13zm26.38-23.8v28.84h-6.38v-28.84h6.38zm13.85 29.21l6.65-10.82c-.66.18-1.31.27-1.96.27-2.15 0-3.99-.89-5.54-2.66s-2.32-3.9-2.32-6.41c0-2.82.92-5.19 2.77-7.1s4.12-2.87 6.83-2.87c2.73 0 4.99.96 6.8 2.87s2.71 4.31 2.71 7.18c0 3.41-1.27 7.18-3.8 11.29l-5.09 8.24h-7.05zm6.3-15.47c.92 0 1.69-.41 2.3-1.22.61-.81.92-1.84.92-3.1 0-1.36-.29-2.44-.87-3.22-.58-.78-1.36-1.18-2.35-1.18-.95 0-1.74.41-2.36 1.22s-.94 1.86-.94 3.13c0 1.29.31 2.34.92 3.14.61.83 1.4 1.23 2.38 1.23z" fill="#69a8d5"/></svg>