<svg version="1.1" id="圖層_1" xmlns="http://www.w3.org/2000/svg" x="0" y="0" viewBox="0 0 617 259.4" xml:space="preserve"><style>.st1{fill:#fff}</style><g id="圖層_2"><path class="st1" d="M578.2 150.2v15.7h-15.7v-15.7h15.7m2.5-2.5H560v20.6h20.6v-20.6h.1z"/><path d="M564.7 153.5h4.5v4.5h-4.5zm4.5-1.7h4.5v4.5h-4.5zm0 7.8h4.5v4.5h-4.5z" fill="#2d2a26"/><path class="st1" d="M569.2 156.3h6.8v-4.5h-11.3v12.3H576v-4.5h-6.8V158zM31 190c-.1.9-.2 1.7-.2 3.2v11.5c0 1.4 0 2.1.2 3.2h-4.6c.1-.9.2-1.7.2-3.2v-4.2h-7.2v4.2c0 1.4 0 2.2.2 3.2H15c.1-.9.2-1.7.2-3.2v-11.5c0-1.5 0-2.2-.2-3.2h4.6c-.1 1-.2 1.8-.2 3.2v3.6h7.2v-3.6c0-1.5 0-2.3-.2-3.2H31zm22.4 0c-.1.9-.2 1.7-.2 3.2v7.4c0 4.9-2.9 7.6-8.1 7.6-2.7 0-4.8-.7-6.1-2.1-1.2-1.3-1.9-3.2-1.9-5.6v-7.3c0-1.5 0-2.4-.2-3.2h4.6c-.1.8-.2 1.6-.2 3.2v7.4c0 2.7 1.2 4 3.7 4 2.6 0 3.8-1.3 3.8-4v-7.4c0-1.6 0-2.3-.2-3.2h4.8zm19.5 17.9c-.9-.1-1.7-.1-3.5-.1h-6.7c-1.6 0-2.2 0-3.1.1.1-.9.2-1.6.2-3.1V193c0-1.3 0-2.1-.2-3.1.9 0 1.5.1 3.1.1h6.8c1.5 0 2.2 0 3.2-.1v4c-1-.1-1.8-.1-3.2-.1h-5.6v3.1h4.6c1.4 0 1.9 0 3.2-.1v4c-1-.1-1.7-.1-3.2-.1h-4.6v3.6h5.5c1.6 0 2.6 0 3.5-.1v3.7zM83.2 190c-.1.9-.2 1.6-.2 3.2v11.5c0 1.5 0 2.3.2 3.2h-4.7c.1-.8.2-1.7.2-3.2v-11.5c0-1.6 0-2.2-.2-3.2h4.7zm39.2 0c-.1.9-.2 1.6-.2 3.4v8.9c0 1.8-.5 3.1-1.5 4.1-1.1 1.1-2.8 1.7-4.9 1.7-2.3 0-4.1-.7-5.3-2-.6-.7-.9-1.2-1.4-2.5l4.2-1.4c.5 1.7 1.1 2.3 2.5 2.3s2.1-.7 2.1-2.2v-8.9c0-1.8 0-2.5-.2-3.5l4.7.1zm22.5 0c-.1.9-.2 1.7-.2 3.2v7.4c0 4.9-2.9 7.6-8.1 7.6-2.7 0-4.8-.7-6.1-2.1-1.2-1.3-1.9-3.2-1.9-5.6v-7.3c0-1.5 0-2.4-.2-3.2h4.6c-.1.8-.2 1.6-.2 3.2v7.4c0 2.7 1.2 4 3.7 4 2.6 0 3.8-1.3 3.8-4v-7.4c0-1.6 0-2.3-.2-3.2h4.8zm18.2 17.8c-.2-1-.3-1.6-.5-2.3l-.6-1.8h-6.1l-.6 1.8c-.3.9-.4 1.5-.5 2.3h-5c.3-.6.5-1.2 1-2.6l4.6-12.9c.4-1 .6-1.7.7-2.3h5.6c.1.6.3 1.2.7 2.3l4.6 12.9c.4 1.1.7 2 1 2.6h-4.9zm-4.2-14.2l-2 6.4h4l-2-6.4zm24.3 5.1c.6.9 1 1.6 1.5 2.6-.1-1-.1-2-.1-3.2v-4.9c0-1.4 0-2.3-.2-3.2h4.6c-.1 1-.2 1.9-.2 3.2v11.4c0 1.3.1 2.3.2 3.2h-4.7c-.4-.8-.9-1.6-1.6-2.7l-4-6c-.6-.9-.9-1.5-1.5-2.6.1 1 .1 2.1.1 3.2v4.8c0 1.5 0 2.4.2 3.3H173c.1-.8.2-1.8.2-3.4v-11.3c0-1.2 0-2.2-.2-3.2h4.6c.2.6.7 1.4 1.5 2.7l4.1 6.1zm49.1-8.7c-.1.9-.2 1.7-.2 3.2v11.5c0 1.4 0 2.1.2 3.2h-4.6c.1-.9.2-1.7.2-3.2v-4.2h-7.2v4.2c0 1.4 0 2.2.2 3.2h-4.6c.1-.9.2-1.7.2-3.2v-11.5c0-1.5 0-2.2-.2-3.2h4.6c-.1 1-.2 1.8-.2 3.2v3.6h7.2v-3.6c0-1.5 0-2.3-.2-3.2h4.6zm19.5 17.9c-.9-.1-1.7-.1-3.5-.1h-6.7c-1.6 0-2.2 0-3.1.1.1-.9.2-1.6.2-3.1V193c0-1.3 0-2.1-.2-3.1.9 0 1.5.1 3.1.1h6.8c1.5 0 2.2 0 3.2-.1v4c-1-.1-1.8-.1-3.2-.1h-5.6v3.1h4.6c1.4 0 1.9 0 3.2-.1v4c-1-.1-1.7-.1-3.2-.1h-4.6v3.6h5.5c1.6 0 2.6 0 3.5-.1v3.7zm34.5-.1c-.1-.7-.3-1.5-.9-3.2l-2-5.7c0-.1-.7-2.1-.7-2.3-.2-.8-.2-.8-.3-1.1.1 1.3.2 3.1.2 4.2v4.6c0 1.5 0 2.4.2 3.3h-4.2c.1-1 .2-1.9.2-3.3v-11.1c0-1.3-.1-2.4-.2-3.3h5.7c.1.9.3 1.6.8 3l3.2 9.2 3.2-9.2c.5-1.4.7-2.1.8-3h5.7c-.1 1-.2 1.9-.2 3.3v11.1c0 1.6 0 2.5.2 3.3h-4.2c.1-1 .2-1.8.2-3.3v-4.7c0-.5.1-2.1.1-2.8.1-1.1.1-1.1.1-1.5-.5 1.7-.7 2.4-1 3.2l-2.1 5.9c-.5 1.5-.8 2.5-.9 3.1l-3.9.3zm29.8 0c-.2-1-.3-1.6-.5-2.3l-.6-1.8h-6.1l-.6 1.8c-.3.9-.4 1.5-.5 2.3h-5c.3-.6.5-1.2 1-2.6l4.6-12.9c.4-1 .6-1.7.7-2.3h5.6c.1.6.3 1.2.7 2.3l4.6 12.9c.4 1.1.7 2 1 2.6h-4.9zm-4.2-14.2l-2 6.4h4l-2-6.4zm26.4-3.8c.8.1 1.3.1 2.6.1h2.7c1.5 0 1.8 0 2.7-.1-.1 1.1-.1 2-.1 3.4v11.2c0 1.3 0 2.2.2 3.2h-4.7c.1-1 .2-2 .2-3.2v-10.9h-.9c-.8 0-1.7 0-2.6.1l-.1-3.8zm19.9 16.4c-.7-.7-1.2-1.5-1.6-2.4-.6-1.5-.8-3.2-.8-4.9 0-2.2.5-4.6 1.3-5.9 1.3-2.2 3.5-3.4 6.2-3.4 2.1 0 3.9.7 5.2 2 .7.7 1.2 1.5 1.6 2.4.6 1.5.8 3.2.8 4.9 0 2.2-.5 4.6-1.3 5.9-1.3 2.1-3.5 3.3-6.3 3.3-2 .1-3.8-.6-5.1-1.9zm2-7.5c0 3.8 1.1 5.8 3.2 5.8s3.2-1.9 3.2-5.7c0-3.7-1.1-5.6-3.2-5.6-2 0-3.2 2-3.2 5.5zm30.2-5.3c-1.3 1.4-1.9 2.3-2.9 4.3-1.7 3.3-2.5 5.8-3 10h-4.9c.6-3.4 1.3-5.7 2.6-8.3.9-1.9 1.7-3.3 3.5-5.7h-6.1c-1.5 0-2.3 0-3.2.1v-4c.9.1 2 .1 3.5.1h7.2c2 0 2.6 0 3.4-.1l-.1 3.6zm16.4 1.5c.5 0 1 .1 2.2.1h.7c1.5-2.1 2.9-4.6 3.3-6.1l3.7 1c-.2.3-.2.3-.5.8-.9 1.7-1.7 3.1-2.6 4.3 3.9-.1 4.4-.1 6.5-.3-.9-1.2-1.4-1.6-2.4-2.7l2.9-1.6c2.4 2.5 3.9 4.3 5.8 7.1l-3 1.8c-.6-.9-.7-1.2-1.2-1.8-3.9.5-6.5.6-13.6.9-.7 0-.9 0-1.5.1l-.3-3.6zm1.8 14.1c.1-.8.1-1.7.1-2.8v-4.6c0-.9 0-1.6-.1-2.2.5 0 1.1.1 2.2.1h11.3c1 0 1.7 0 2.2-.1-.1.6-.1 1.2-.1 2.2v4.6c0 1.2 0 2 .1 2.8h-3.4v-.9H412v.9h-3.4zm3.3-3.9h9v-2.8h-9v2.8zm31.8-4.1c-1.6-1.6-2.4-2.3-4-3.5h-1.9c1 1.2 1.6 1.8 2.8 2.7-.7 1.2-.8 1.6-1.4 3.2-.6-.7-1-1.3-1.6-2.2 0 .3 0 .9.1 1.8v3.2c0 1.3 0 1.9.1 2.8h-3.4c.1-.9.1-1.5.1-2.8v-2.5c0-.4 0-.8.1-1.8-.6 1.6-1.2 2.5-2.2 3.6-.6-1.6-.9-2.4-1.4-3.3 1.3-1.2 2.5-3 3.1-4.9h-.8c-.8 0-1.3 0-1.9.1v-3.2c.6.1 1.1.1 1.9.1h1.2v-1.5c-.5.1-.9.1-2.1.3-.3-1.2-.5-1.7-1.1-2.8 3.6-.3 6.2-.9 7.5-1.7l1.8 2.7c-.8.3-1.8.6-3 1v2.1h.8c.8 0 1.2 0 1.7-.1v2.6l1.5-1.8c1.7 1.2 2.7 1.9 4 3.2l-1.9 2.7zm2.4-9.3c0-1.4 0-2-.1-2.7h3.5c-.1.8-.1 1.3-.1 2.7v8.8c.9-.2 1.2-.3 1.8-.5l.1 3.4c-.5 0-1.1.1-1.9.3v2.7c0 1.4 0 2 .1 2.7H446c.1-.7.1-1.3.1-2.7v-2l-3.9.8c-1.2.3-1.6.4-2.1.5l-.3-3.4c.5 0 1.2-.1 2.1-.3l4.2-.9v-7.5l-1.7 2.1c-1.3-1.4-2.2-2.2-4-3.4l2-2.3c1.6 1.1 2.8 2 3.7 2.8v-1.1zm10 .6c.5.1.9.1 1.7.1h4.8c.9 0 1.3 0 1.7-.1v2.8c-.5-.1-.6-.1-1.7-.1h-4.8c-.8 0-1.2 0-1.7.1v-2.8zm8.4 5.3c.5.1.7.1 1.3.1-.5-.5-1.3-1.1-1.9-1.5v2h-7.2v-2.4h7.1c.6-.5.9-.8 1.2-1.4.4-.8.6-2 .6-3.7 0-.5 0-.8-.1-1.3.6.1 1 .1 1.7.1h4c.7 0 1.2 0 1.8-.1 0 .5-.1.9-.1 1.6v3c0 .2.1.3.4.3.6 0 .6 0 .6-2.4.9.5 1.4.7 2.4 1-.2 3.7-.6 4.2-3 4.2-1.8 0-2.4-.1-2.9-.3-.4-.2-.5-.5-.5-1.3v-3h-1.5c-.1 2.4-.6 3.9-2 5.3h5.8c.8 0 1.1 0 1.4-.1l1.5 1.5c-.1.3-.1.3-.4 1-.8 1.9-1.6 3.3-2.6 4.4 1.2.6 2.5 1 4.1 1.3-.7 1.2-1 2-1.4 3.2-2.3-.7-3.7-1.3-5.2-2.2-1.3.9-2.5 1.5-4.5 2.2-.5-1-.7-1.5-1.3-2.3v.4c0 .9 0 1.1.1 1.6H461v-.6h-1.5v.9h-3.1c.1-.7.1-1.4.1-2.1v-3.4c0-.6 0-1-.1-1.6.5 0 .9.1 1.6.1h4.5c.7 0 1 0 1.3-.1v4.1c1.2-.3 2.2-.7 3.2-1.3-.6-.7-.7-.8-2.4-2.9l2.3-1.2h-1c-.8 0-1.2 0-1.8.1l.4-3.2zm-7.8-8.4c.6.1.9.1 1.9.1h3.3c1 0 1.3 0 1.9-.1v2.5c-.6 0-1-.1-1.9-.1h-3.3c-.9 0-1.4 0-1.9.1v-2.5zm0 9.6h7.1v2.4h-7v-2.4zm2.8 6.8h1.5v-1.4h-1.5v1.4zm8.3-5c.9 1.2 1.2 1.6 1.8 2.2.6-.7 1-1.2 1.5-2.2h-3.3zm22.4-5.4h-7.5c-.7 0-1.2 0-1.8.1v-2.9c.5.1 1 .1 1.8.1h5.9c.9 0 1.3 0 1.8-.1v2.7c.6.1 1.5.1 2.5.1h.9v-3.4c0-1.4 0-1.9-.1-2.7h3.6c-.1.8-.1 1.3-.1 2.7v3.4h1c1.2 0 1.9 0 2.6-.1v3.3c-1-.1-1.7-.1-2.7-.1h-1v7.5c0 1.6 0 2.5.1 3.4h-3.7c.1-.8.1-1.8.1-3.4v-7.5h-.9c-.9 0-1.9 0-2.7.1l.2-3.2zm-5.4 13.9h-3.1c.1-.6.1-1.2.1-2v-3.5c0-.6 0-1-.1-1.6h6.8c.7 0 .9 0 1.3-.1 0 .5-.1.9-.1 1.6v3.3c0 .9 0 1.4.1 1.9h-3.1v-.6h-1.9v1zm-3-19.8c.6.1 1 .1 2 .1h3.9c1 0 1.3 0 1.9-.1v2.5c-.5 0-1-.1-1.9-.1h-3.9c-.9 0-1.4 0-2 .1v-2.5zm0 6.5h7.8v2.4h-7.8v-2.4zm0 3.1h7.8v2.4h-7.8v-2.4zm3 6.8h2v-1.3h-2v1.3zm28.4-2c-1.5 2.1-3 3.4-5.6 5-.6-1.1-1.2-1.8-2.1-2.7 1.2-.6 1.8-.9 2.7-1.6 1-.8 1.6-1.4 2.3-2.3l2.7 1.6zm8.6-9.7l-.8.8c-1.1 1.2-2.7 2.8-4 3.9 1.3 0 2.4-.1 3.5-.1-.3-.4-.5-.6-.9-1.2l2.7-1.4c1.7 2.2 2.5 3.4 3.6 5.4L523 203c-.5-1-.6-1.3-.8-1.6-3 .2-4.6.3-5 .3v4.6c0 1.3 0 2.1.1 2.7h-3.6c.1-.5.1-1.5.1-2.7v-4.5c-1.5 0-2.7.1-3.7.1-2.9.1-3.3.1-3.8.2l-.3-3.6c.6.1.9.1 2.1.1h4.3c-1.9-1.5-2.9-2.2-4.9-3.3l2.3-2c.6.4.8.5 1.3.8.6-.6.8-.9 1.3-1.6-2 0-3.7.1-5.2.1-.3-1.2-.5-1.8-1-3h2.7c6.7 0 10.8-.3 13.2-1.1l2 3c-2.7.4-5.1.6-7.6.7-1 1.4-1.8 2.3-3 3.4.5.4.6.5 1.2.9 2.2-2.2 2.9-2.9 3.8-4.3l3.3 1.8zm-1.2 7.9c1.6 1.9 2.9 2.9 5.2 3.9-.9 1-1.4 1.7-2 2.8-2.5-1.5-4.1-2.9-5.7-5.1l2.5-1.6zm21.6 4.6c0 1-.3 1.7-.9 2.1-.6.3-1.6.5-3.3.5h-1.4c-.1-1.1-.3-1.7-.7-2.7.9.1 1.6.1 2.2.1.9 0 1-.1 1-.5v-.6h-5.3c-1.5 0-2.3 0-3.1.1v-2.8c.7.1 1.5.1 3 .1h5.3v-.7h1l1.2-.6H537c-1.1 0-1.7 0-2.3.1v-2.4c.6.1.9.1 1.9.1h6.7c.7 0 1.2 0 1.6-.1l1.2 1.5c-.3.2-.5.3-1.1.8-.4.3-1.3.9-2.2 1.4h4.2c1.5 0 2.3 0 3.1-.1v2.8c-.8-.1-1.6-.1-3.1-.1h-4.9l.1 1zm-5.2-11.7c1-.3 1.2-.3 1.8-.6-.5-.3-.7-.4-1.4-.7l.9-.7c-.5-.6-.7-.8-1.3-1.3 1-.3 1.3-.5 2-.8-.5-.3-.7-.4-1.5-.7l1.4-1.2c.9.4 1.1.5 1.8.9.5-.3.7-.5 1.2-1.1l1.8 1.1c-.6.6-.9.7-1.2 1 .4.3.6.4 1.2.8l-1.2 1 1.2.9c-.6.5-.8.6-1.2.8.4.3.6.4 1.1.8l-1.5 1.3h4v-.6h-2.2V194h2.4v-.6H545c-.6 0-.9 0-1.1.1v-1.7h2.5v-.6h-2.5V189c.3.1.8.1 1.5.1h2.5c.6 0 1.1 0 1.5-.1 0 .5-.1 1.1-.1 1.5l-.3 5.5c.6 0 .8 0 1.2-.1-.1.5-.1 1-.1 1.8v.9c0 .8 0 1.2.1 1.7h-3v-2h-13.3v2h-3c.1-.6.1-1 .1-1.8v-.8c0-.7 0-1.2-.1-1.8.4 0 .7 0 1.3.1l-.2-5c0-.7-.1-1.1-.1-1.5 1.9-.1 3.6-.6 4.5-1.1l1.2 2.2c-.1 0-.1 0-.3.1-.5.2-1.7.5-2.6.6v.5h1.3c.6 0 .9 0 1.1-.1v1.7h-2.3v.5h2.3l-.1.9zm1.2 1.7c-.4-.7-.7-1-1.2-1.5v.9h-2.2v.6h3.4zm3.8 0c-.6-.6-.8-.7-1.2-1-1 .5-1.3.6-2.3 1h3.5zm-.4-3.8c-.4-.3-.5-.4-.9-.7-.6.4-.8.5-1.3.7.5.2.7.3 1.2.6.5-.2.6-.3 1-.6zm15.7 4.4v-1.2c-.3.1-.5.2-1 .4-.3-1.2-.6-1.9-1.3-3.1 2-.5 3.5-1.1 5.1-1.9 1.5-.8 2.6-1.6 3.3-2.4h3.7c1.1 1 2.2 1.8 4 2.6 1.6.7 2.9 1.2 4.7 1.6-.6 1.1-.9 1.8-1.3 3.2-.5-.2-.7-.2-1.2-.4v3.7c0 .8 0 1.4.1 1.9-.7 0-1.3-.1-2.2-.1h-11.8c-.9 0-1.4 0-2.2.1.1-.5.1-1.1.1-1.9v-2.5zm.9 7c0-.9 0-1.6-.1-2.3.7 0 1.3.1 2.3.1h9.9c1 0 1.6 0 2.1-.1-.1.5-.1.9-.1 2.2v2.3c0 1.2 0 2.1.1 2.7h-3.2v-.7h-7.9v.7h-3.2c.1-.7.1-1.4.1-2.6v-2.3zm12.9-8.9h.9c-1-.4-1.6-.7-2.6-1.2v.7c-.6 0-1.1-.1-1.6-.1h-4.7c-.9 0-1.2 0-1.7.1v-.7c-.9.5-1.5.8-2.4 1.2h12.1zm-10.9 1.9v2.3h1.4c-.5-.9-.6-1.1-1-1.7l1.3-.6h-1.7zm1.1 7.2h7.9v-.6h-7.9v.6zm0 2.2h7.9v-.6h-7.9v.6zm1.3-9.4c.7.9.7 1 1 1.6l-1.5.7h1.9v-2.3h-1.4zm4.5-4.4c-.9-.6-1.2-.8-2-1.5-.7.7-1 1-1.7 1.5h3.7zm-.6 4.4v2.3h1.9l-1.5-.7c.4-.6.7-1 1-1.6h-1.4zm3.8 2.3v-2.3h-1.8l1.5.6c-.3.6-.6 1.1-1 1.7h1.3zM178.2 92h-1.8V79.4h1.7V66.7h12.7V54h-38.1v12.7h11v12.7h-3.3V92h-7.6v12.7h-5.1v12.7h12.7v38.1h30.5V92h-12.7zm-5.1 50.8v-38.1h5.1v12.7h-.1v12.7h.1v12.7h-5.1zm137.7-26.5h-5v25.4H302v12.7h-5v12.7h17.7v-12.7h3.8v-12.7h5v-25.4h-5zm0-25.4V78.2h-18.5v12.7h5.8v12.7h25.4V90.9h-5.8zm-12.7-38v12.7h12.7v8.7h12.7V52.9h-12.7zm77.3 78.5h8.2V80.6h-46.3V144H350v-10.5h25.4v-2.1zm-12.7-10.5H350V93.3h20.9v27.6h-8.2zm109.1 6.8h-14.3v12.7h1.6v12.7H474v-12.7h-2.2zm15.1 22.9h12.7v-12.7h-3.4v-12.7h-15.6v12.7h2.9v12.7zm29.3-27.9h-12.6v12.7h4.1v12.7h16.2v-12.7h-3.5v-12.7zm-78.1 5h-2.7v12.7h-4.8v12.7h-2.5v12.7h15.2v-12.7h4.8v-12.7h2.7v-12.7h-2.7z"/><path class="st1" d="M501.6 65.6h38.1V52.9H438.1v68.5H527V155h-40.3v12.7h53v-59.2h-44.5v-4.9H535V90.9h-39.9v-7.7h39.6V70.6h-39.6v-5h6.5zm-50.8 0h31.7v5h-31.6v-5zm0 17.7h31.4V91h-31.3v-7.7zm31.7 25.4h-31.7v-5h31.4v5zm-77.3-55.8H329v12.7h68v88.1h-25.4v12.7h38.1V65.6h8.2V52.9h-8.2zM260.6 54h-18.3v-6.1h-12.7V54h-32.4v12.7h32.4v4h-32.4v41.4h12.7v2.7h19.7v2.7h-32.4v12.7H248v2.7h-54.9v12.7H248v8.7h-25.4v-5.2h-19.2v12.7h19.2v5.2h38.1v-21.4h12.7v-12.7h-12.7v-2.7h12.7V111h-12.7v-2.4h12.7v-38h-31.1v-4h31.1V54h-12.8zm-50.7 29.3h19.7v3.4h-19.7v-3.4zm12.7 18.8h-12.7v-2.7h19.7v2.7h-7zm38 15.3h-18.4v-2.7h18.4v2.7zm0-15.3h-18.4v-2.7h18.4v2.7zm-12.7-18.8h12.7v3.4h-18.4v-3.4h5.7zM124 153.6v-12.7h-12.7v-12.7h-8.8v-12.7H119v-12.7h4.4V90.1h8.3V77.4h-21v12.7h-4.4v12.7h-7.6v12.7h-8.9V77.4H77.1v38.1h-3.8v-12.7H67V90.1H55.8V77.4H53V67.2h78.7V54.5H53v-6.3H36.5v6.3H14.9v12.7h21.6v10.2H34v12.7h-7.6v12.6h-6.2v12.7h-.1v.1h-6.3v12.7h12.7v-.1h6.3v-12.6h6.3v-12.7h6.3V90.1h1.2v12.7h5.1v12.7H67v12.7H48v12.7H35.2v12.7h-19v12.7h31.7v-12.7h12.7v-12.7h19.1v-12.7h11.7v12.7h7.3v12.7h12.6v12.7h25.4v-12.7h-5z"/></g></svg>