<svg xmlns="http://www.w3.org/2000/svg" viewBox="0 0 595.28 359.4"><style>.st41{fill:#f4f4f4}</style><g id="Layer_13"><path class="st41" d="M79.97 299.47l4.99-6.08c2.62 2.23 6.03 3.76 8.95 3.76 3.26 0 4.8-1.24 4.8-3.21 0-2.13-2.03-2.82-5.19-4.15l-4.7-1.98c-3.86-1.53-7.46-4.75-7.46-10.08 0-6.18 5.54-11.12 13.35-11.12 4.25 0 8.75 1.63 11.96 4.84l-4.4 5.54c-2.42-1.83-4.7-2.82-7.56-2.82-2.72 0-4.4 1.09-4.4 3.06 0 2.03 2.32 2.82 5.59 4.1l4.6 1.83c4.55 1.83 7.27 4.89 7.27 10.08 0 6.13-5.14 11.52-14.04 11.52-4.82 0-9.96-1.78-13.76-5.29zm41.46-8.4l-11.07-23.78h9.39l3.06 8.16c.99 2.77 1.93 5.34 2.97 8.21h.2c1.04-2.87 2.03-5.44 3.06-8.21l3.06-8.16h9.24l-11.12 23.78v13h-8.8v-13zm25.95-23.78h9.54l5.83 15.87c.74 2.13 1.33 4.45 2.03 6.72h.25c.74-2.27 1.33-4.6 2.03-6.72l5.63-15.87h9.59v36.78h-8.06v-12.6c0-3.66.69-9.14 1.14-12.75h-.2l-3.06 8.8-4.94 13.44h-4.84l-4.99-13.44-2.97-8.8h-.2c.44 3.61 1.14 9.1 1.14 12.75v12.6h-7.91v-36.78zm45.61 0h12.85c7.61 0 13.69 2.03 13.69 9.09 0 3.26-1.83 6.82-4.79 7.96v.2c3.71.99 6.52 3.76 6.52 8.65 0 7.51-6.38 10.87-14.38 10.87h-13.89v-36.77zm12.51 14.59c3.76 0 5.44-1.63 5.44-4.15 0-2.62-1.73-3.71-5.44-3.71h-3.66v7.86h3.66zm.74 15.42c4.25 0 6.43-1.53 6.43-4.7 0-3.02-2.13-4.2-6.43-4.2h-4.4v8.9h4.4zm23.37-30.01h8.85v36.78h-8.85v-36.78zm17.89 18.19c0-12.06 6.82-18.88 16.86-18.88 10.03 0 16.86 6.87 16.86 18.88 0 12.06-6.82 19.28-16.86 19.28s-16.86-7.21-16.86-19.28zm24.72 0c0-7.12-3.02-11.32-7.86-11.32s-7.81 4.2-7.81 11.32c0 7.17 2.97 11.67 7.81 11.67s7.86-4.5 7.86-11.67zm23.57-10.87h-9.94v-7.32h28.77v7.32h-9.98v29.46h-8.85v-29.46zm26.78-7.32h23.33v7.32h-14.48v6.82h12.31v7.41h-12.31v7.81h15.03v7.42h-23.87v-36.78zm-28.8-39.41v-32.92h36.04V180.4h-36.04v-22.53h41.94v-14.73h-41.94V21.67c2.46-2.06 4.03-5.15 4.03-8.62 0-6.2-5.03-11.23-11.23-11.23s-11.23 5.03-11.23 11.23c0 3.38 1.5 6.41 3.87 8.47v121.62H250.1l9.36-25.65h-15.42l-21.83 60.13h15.6l7.28-19.75h34.14v22.53H244.9v14.56h34.31v32.92h-52.68v14.73h119.91v-14.73h-52.67zm136.47-39.55h57.49v26.51h-57.49z"/><path class="st41" d="M580.82 224.85c-4.71 0-8.74 2.9-10.4 7.01h-91.89l4.93-9.86H471.8l-4.76 9.86h-14.95L447 222h-11.66l5.09 9.86h-22.16v-50.1h78.17v-10.35h-68.17v-6.9h63.41v-41.06h-18.56v-8.87h-9.2v8.87h-9.69v-8.87h-9.53v8.87h-18.4v28.42h-3.93v-35.15h-45.43v35.15h-10.76v23h10.19v161.56c-3.22 2.03-5.36 5.61-5.36 9.69 0 6.33 5.13 11.46 11.46 11.46 6.33 0 11.46-5.13 11.46-11.46 0-4.13-2.19-7.74-5.46-9.75V219.39h17.68v24.8h12.11v-1.81h153.26c2.02 2.98 5.43 4.94 9.3 4.94 6.2 0 11.23-5.03 11.23-11.23 0-6.21-5.03-11.24-11.23-11.24zm-107.71-92.69h9.86v6.74h-9.86v-6.74zm0 16.42h9.86v7.06h-9.86v-7.06zm-18.89-16.42h9.69v6.74h-9.69v-6.74zm0 16.42h9.69v7.06h-9.69v-7.06zM435 132.16h9.69v6.74H435v-6.74zm0 16.42h9.69v7.06H435v-7.06zm-47.3-22.66h19.22v7.72h-14.61v18.23h-4.61v-25.95zm19.22 16.42v9.53h-4.61v-9.53h4.61zm-.77 66.69h-17.68v-9.86h17.68v9.86zm0-20.2h-17.68v-8.38h17.68v8.38zm10.77-18.73h-39.21v-8.38h39.21v8.38zM159.5 217.14l19.24 24.43h17.85l-19.41-24.43zm-79.53 24.43h17.32l18.03-24.43H97.99zm89.58-53.02v-35.87h25.13v-13.69h-25.13v-22.35h-13.69v22.35h-37.08v-22.35h-13.69v22.35H79.97v13.69h25.13v35.87H22.96c-2.06-2.39-5.1-3.91-8.51-3.91-6.2 0-11.23 5.03-11.23 11.23s5.03 11.23 11.23 11.23c3.76 0 7.08-1.85 9.12-4.69h178.9v-13.86h-32.92zm-13.69 0h-37.08v-35.87h37.08v35.87z"/></g></svg>