<svg xmlns="http://www.w3.org/2000/svg" viewBox="0 0 796.01 709.62"><style>.st230{fill:#f4f4f4}</style><g id="圖層_3"><linearGradient id="SVGID_2_" gradientUnits="userSpaceOnUse" x1="100.938" y1="457.397" x2="137.659" y2="457.397"><stop offset="0" stop-color="#2ca1cb"/><stop offset="1" stop-color="#d52d70"/></linearGradient><path d="M100.94 475.65l6.6-8.05c3.46 2.94 7.97 4.97 11.83 4.97 4.31 0 6.34-1.64 6.34-4.25 0-2.81-2.68-3.73-6.86-5.5l-6.21-2.62c-5.1-2.03-9.87-6.28-9.87-13.35 0-8.18 7.32-14.72 17.64-14.72 5.62 0 11.57 2.16 15.81 6.41l-5.81 7.33c-3.2-2.42-6.21-3.73-10-3.73-3.59 0-5.82 1.44-5.82 4.06 0 2.68 3.07 3.73 7.38 5.43l6.08 2.42c6.01 2.42 9.6 6.48 9.6 13.35 0 8.11-6.8 15.24-18.56 15.24-6.33.01-13.12-2.35-18.15-6.99z" fill="url(#SVGID_2_)"/><linearGradient id="SVGID_3_" gradientUnits="userSpaceOnUse" x1="141.114" y1="457.397" x2="182.082" y2="457.397"><stop offset="0" stop-color="#2ca1cb"/><stop offset="1" stop-color="#d52d70"/></linearGradient><path d="M155.75 464.53l-14.64-31.47h12.41l4.05 10.79c1.31 3.66 2.55 7.07 3.92 10.86h.26c1.37-3.79 2.68-7.2 4.05-10.86l4.05-10.79h12.22l-14.7 31.47v17.21h-11.63v-17.21z" fill="url(#SVGID_3_)"/><linearGradient id="SVGID_4_" gradientUnits="userSpaceOnUse" x1="190.044" y1="457.397" x2="236.173" y2="457.397"><stop offset="0" stop-color="#2ca1cb"/><stop offset="1" stop-color="#d52d70"/></linearGradient><path d="M190.04 433.06h12.61l7.71 21c.98 2.81 1.76 5.89 2.68 8.9h.33c.98-3.01 1.76-6.08 2.68-8.9l7.45-21h12.68v48.67h-10.65v-16.68c0-4.84.91-12.1 1.5-16.88h-.26l-4.05 11.64-6.53 17.79h-6.4l-6.6-17.79-3.92-11.64H199c.59 4.78 1.5 12.04 1.5 16.88v16.68h-10.45v-48.67z" fill="url(#SVGID_4_)"/><linearGradient id="SVGID_5_" gradientUnits="userSpaceOnUse" x1="250.343" y1="457.397" x2="287.717" y2="457.397"><stop offset="0" stop-color="#2ca1cb"/><stop offset="1" stop-color="#d52d70"/></linearGradient><path d="M250.34 433.06h16.99c10.06 0 18.1 2.68 18.1 12.04 0 4.32-2.42 9.03-6.34 10.53v.26c4.9 1.31 8.62 4.97 8.62 11.45 0 9.94-8.43 14.39-19.01 14.39h-18.36v-48.67zm16.53 19.3c4.97 0 7.19-2.16 7.19-5.5 0-3.47-2.29-4.91-7.19-4.91h-4.84v10.4h4.84zm.98 20.41c5.62 0 8.49-2.03 8.49-6.22 0-3.99-2.81-5.56-8.49-5.56h-5.82v11.78h5.82z" fill="url(#SVGID_5_)"/><linearGradient id="SVGID_6_" gradientUnits="userSpaceOnUse" x1="298.752" y1="457.397" x2="310.447" y2="457.397"><stop offset="0" stop-color="#2ca1cb"/><stop offset="1" stop-color="#d52d70"/></linearGradient><path d="M298.75 433.06h11.7v48.67h-11.7v-48.67z" fill="url(#SVGID_6_)"/><linearGradient id="SVGID_7_" gradientUnits="userSpaceOnUse" x1="322.397" y1="457.397" x2="366.959" y2="457.397"><stop offset="0" stop-color="#2ca1cb"/><stop offset="1" stop-color="#d52d70"/></linearGradient><path d="M322.4 457.13c0-15.96 9.02-24.99 22.28-24.99 13.26 0 22.28 9.09 22.28 24.99 0 15.96-9.02 25.51-22.28 25.51-13.27.01-22.28-9.54-22.28-25.51zm32.67 0c0-9.42-3.99-14.98-10.39-14.98s-10.32 5.56-10.32 14.98c0 9.49 3.92 15.44 10.32 15.44s10.39-5.95 10.39-15.44z" fill="url(#SVGID_7_)"/><linearGradient id="SVGID_8_" gradientUnits="userSpaceOnUse" x1="373.092" y1="457.397" x2="411.119" y2="457.397"><stop offset="0" stop-color="#2ca1cb"/><stop offset="1" stop-color="#d52d70"/></linearGradient><path d="M386.23 442.74H373.1v-9.68h38.03v9.68h-13.2v38.99h-11.7v-38.99z" fill="url(#SVGID_8_)"/><linearGradient id="SVGID_9_" gradientUnits="userSpaceOnUse" x1="421.631" y1="457.397" x2="453.19" y2="457.397"><stop offset="0" stop-color="#2ca1cb"/><stop offset="1" stop-color="#d52d70"/></linearGradient><path d="M421.63 433.06h30.84v9.68h-19.15v9.03h16.27v9.81h-16.27v10.34h19.86v9.81h-31.56v-48.67z" fill="url(#SVGID_9_)"/><linearGradient id="SVGID_10_" gradientUnits="userSpaceOnUse" x1="288.957" y1="241.059" x2="453.19" y2="241.059"><stop offset="0" stop-color="#2ca1cb"/><stop offset="1" stop-color="#d52d70"/></linearGradient><path d="M383.56 380.9v-43.57h47.64v-19.26h-47.64v-29.81h55.43v-19.49h-55.43V107.99c3.26-2.73 5.33-6.82 5.33-11.4 0-8.21-6.65-14.86-14.85-14.86s-14.85 6.65-14.85 14.86c0 4.48 1.99 8.49 5.12 11.21v160.96h-38.48l12.37-33.94h-20.39l-28.86 79.58h20.61l9.62-26.14h45.12v29.81h-45.35v19.26h45.35v43.57h-69.63v19.49h158.51V380.9h-69.62z" fill="url(#SVGID_10_)"/><linearGradient id="SVGID_11_" gradientUnits="userSpaceOnUse" x1="563.946" y1="346.101" x2="639.941" y2="346.101"><stop offset="0" stop-color="#2ca1cb"/><stop offset="1" stop-color="#d52d70"/></linearGradient><path fill="url(#SVGID_11_)" d="M563.95 328.56h75.99v35.08h-75.99z"/><linearGradient id="SVGID_12_" gradientUnits="userSpaceOnUse" x1="479.267" y1="391.751" x2="777.841" y2="391.751"><stop offset="0" stop-color="#2ca1cb"/><stop offset="1" stop-color="#d52d70"/></linearGradient><path d="M763 376.89c-6.23 0-11.55 3.84-13.75 9.28H627.78l6.51-13.04h-15.42l-6.3 13.04h-19.76l-6.73-13.04h-15.42l6.73 13.04H548.1v-66.3h103.33v-13.7h-90.12v-9.13h83.82v-54.35h-24.54v-11.74h-12.16v11.74h-12.81v-11.74h-12.59v11.74h-24.32v37.61h-5.19v-46.52h-60.05v46.52h-14.23v30.44h13.47v213.82c-4.25 2.69-7.08 7.42-7.08 12.83 0 8.38 6.79 15.17 15.16 15.17 8.37 0 15.15-6.79 15.15-15.17 0-5.46-2.89-10.24-7.22-12.91V369.67h23.37v32.83h16.01v-2.39h202.6c2.67 3.94 7.18 6.53 12.29 6.53 8.2 0 14.85-6.65 14.85-14.86 0-8.24-6.65-14.89-14.84-14.89zM620.62 254.21h13.03v8.91h-13.03v-8.91zm0 21.74h13.03v9.35h-13.03v-9.35zm-24.97-21.74h12.81v8.91h-12.81v-8.91zm0 21.74h12.81v9.35h-12.81v-9.35zm-25.41-21.74h12.81v8.91h-12.81v-8.91zm0 21.74h12.81v9.35h-12.81v-9.35zm-62.52-30h25.41v10.22h-19.31v24.13h-6.1v-34.35zm25.41 21.74v12.61h-6.1v-12.61h6.1zm-1.02 88.26h-23.37v-13.04h23.37v13.04zm0-26.74h-23.37v-11.09h23.37v11.09zm14.23-24.78h-51.83v-11.09h51.83v11.09z" fill="url(#SVGID_12_)"/><linearGradient id="SVGID_13_" gradientUnits="userSpaceOnUse" x1="206.075" y1="382.853" x2="255.093" y2="382.853"><stop offset="0" stop-color="#2ca1cb"/><stop offset="1" stop-color="#d52d70"/></linearGradient><path fill="url(#SVGID_13_)" d="M206.07 366.68l25.43 32.34h23.59l-25.65-32.34z"/><linearGradient id="SVGID_14_" gradientUnits="userSpaceOnUse" x1="100.938" y1="382.853" x2="147.665" y2="382.853"><stop offset="0" stop-color="#2ca1cb"/><stop offset="1" stop-color="#d52d70"/></linearGradient><path fill="url(#SVGID_14_)" d="M100.94 399.02h22.9l23.83-32.34h-22.91z"/><linearGradient id="SVGID_15_" gradientUnits="userSpaceOnUse" x1="-.5" y1="293.533" x2="262.881" y2="293.533"><stop offset="0" stop-color="#2ca1cb"/><stop offset="1" stop-color="#d52d70"/></linearGradient><path d="M219.36 328.84v-47.47h33.21v-18.12h-33.21v-29.58h-18.1v29.58h-49.02v-29.58h-18.1v29.58h-33.21v18.12h33.21v47.47H25.59c-2.72-3.16-6.74-5.17-11.24-5.17-8.2 0-14.85 6.65-14.85 14.86 0 8.21 6.65 14.86 14.85 14.86 4.97 0 9.36-2.45 12.05-6.21h236.48v-18.35h-43.52zm-18.09 0h-49.02v-47.47h49.02v47.47z" fill="url(#SVGID_15_)"/><path class="st230" d="M108.33 475.65l6.6-8.05c3.46 2.94 7.97 4.97 11.83 4.97 4.31 0 6.34-1.64 6.34-4.25 0-2.81-2.68-3.73-6.86-5.5l-6.21-2.62c-5.1-2.03-9.87-6.28-9.87-13.35 0-8.18 7.32-14.72 17.64-14.72 5.62 0 11.57 2.16 15.81 6.41l-5.81 7.33c-3.2-2.42-6.21-3.73-10-3.73-3.59 0-5.82 1.44-5.82 4.06 0 2.68 3.07 3.73 7.38 5.43l6.08 2.42c6.01 2.42 9.6 6.48 9.6 13.35 0 8.11-6.8 15.24-18.56 15.24-6.32.01-13.12-2.35-18.15-6.99zm54.81-11.12l-14.64-31.47h12.41l4.05 10.79c1.31 3.66 2.55 7.07 3.92 10.86h.26c1.37-3.79 2.68-7.2 4.05-10.86l4.05-10.79h12.22l-14.7 31.47v17.21h-11.63v-17.21zm34.3-31.47h12.61l7.71 21c.98 2.81 1.76 5.89 2.68 8.9h.33c.98-3.01 1.76-6.08 2.68-8.9l7.45-21h12.68v48.67h-10.65v-16.68c0-4.84.91-12.1 1.5-16.88h-.26l-4.05 11.64-6.53 17.79h-6.4l-6.6-17.79-3.92-11.64h-.26c.59 4.78 1.5 12.04 1.5 16.88v16.68h-10.45v-48.67zm60.3 0h16.99c10.06 0 18.1 2.68 18.1 12.04 0 4.32-2.42 9.03-6.34 10.53v.26c4.9 1.31 8.62 4.97 8.62 11.45 0 9.94-8.43 14.39-19.01 14.39h-18.36v-48.67zm16.53 19.3c4.97 0 7.19-2.16 7.19-5.5 0-3.47-2.29-4.91-7.19-4.91h-4.84v10.4h4.84zm.98 20.41c5.62 0 8.49-2.03 8.49-6.22 0-3.99-2.81-5.56-8.49-5.56h-5.82v11.78h5.82zm30.9-39.71h11.7v48.67h-11.7v-48.67zm23.64 24.07c0-15.96 9.02-24.99 22.28-24.99s22.28 9.09 22.28 24.99c0 15.96-9.02 25.51-22.28 25.51s-22.28-9.54-22.28-25.51zm32.67 0c0-9.42-3.99-14.98-10.39-14.98s-10.32 5.56-10.32 14.98c0 9.49 3.92 15.44 10.32 15.44s10.39-5.95 10.39-15.44zm31.16-14.39h-13.13v-9.68h38.03v9.68h-13.2v38.99h-11.7v-38.99zm35.41-9.68h30.84v9.68h-19.15v9.03h16.27v9.81h-16.27v10.34h19.86v9.81h-31.56v-48.67zm-38.08-52.16v-43.57h47.64v-19.26h-47.64v-29.81h55.43v-19.49h-55.43V107.99c3.26-2.73 5.33-6.82 5.33-11.4 0-8.21-6.65-14.86-14.85-14.86s-14.85 6.65-14.85 14.86c0 4.48 1.99 8.49 5.12 11.21v160.96h-38.48l12.37-33.94H325.2l-28.86 79.58h20.61l9.62-26.14h45.12v29.81h-45.35v19.26h45.35v43.57h-69.63v19.49h158.51V380.9h-69.62zm180.39-52.34h75.99v35.08h-75.99z"/><path class="st230" d="M770.39 376.89c-6.23 0-11.55 3.84-13.75 9.28H635.18l6.51-13.04h-15.42l-6.3 13.04h-19.76l-6.73-13.04h-15.42l6.73 13.04H555.5v-66.3h103.33v-13.7h-90.12v-9.13h83.82v-54.35h-24.54v-11.74h-12.16v11.74h-12.81v-11.74h-12.59v11.74h-24.32v37.61h-5.19v-46.52h-60.05v46.52h-14.23v30.44h13.47v213.82c-4.25 2.69-7.08 7.42-7.08 12.83 0 8.38 6.79 15.17 15.16 15.17 8.37 0 15.15-6.79 15.15-15.17 0-5.46-2.89-10.24-7.22-12.91V369.67h23.37v32.83h16.01v-2.39h202.6c2.67 3.94 7.18 6.53 12.29 6.53 8.2 0 14.85-6.65 14.85-14.86 0-8.24-6.65-14.89-14.85-14.89zM628.01 254.21h13.03v8.91h-13.03v-8.91zm0 21.74h13.03v9.35h-13.03v-9.35zm-24.97-21.74h12.81v8.91h-12.81v-8.91zm0 21.74h12.81v9.35h-12.81v-9.35zm-25.4-21.74h12.81v8.91h-12.81v-8.91zm0 21.74h12.81v9.35h-12.81v-9.35zm-62.52-30h25.41v10.22h-19.31v24.13h-6.1v-34.35zm25.4 21.74v12.61h-6.1v-12.61h6.1zm-1.01 88.26h-23.37v-13.04h23.37v13.04zm0-26.74h-23.37v-11.09h23.37v11.09zm14.22-24.78H501.9v-11.09h51.83v11.09zm-340.26 62.25l25.43 32.34h23.59l-25.66-32.34zm-105.14 32.34h22.91l23.82-32.34h-22.91zm118.42-70.18v-47.47h33.21v-18.12h-33.21v-29.58h-18.1v29.58h-49.02v-29.58h-18.1v29.58h-33.21v18.12h33.21v47.47H32.98c-2.72-3.16-6.74-5.17-11.24-5.17-8.2 0-14.85 6.65-14.85 14.86 0 8.21 6.65 14.86 14.85 14.86 4.97 0 9.36-2.45 12.05-6.21h236.48v-18.35h-43.52zm-18.09 0h-49.02v-47.47h49.02v47.47z"/><path d="M424.12 161.93h3.75V150h-3.07v-1.7c1.61-.3 2.75-.7 3.73-1.31h2.03v14.93h3.35v2.21h-9.78v-2.2zm12.37-6.43c0-5.94 2.17-8.83 5.54-8.83 3.35 0 5.54 2.91 5.54 8.83 0 5.96-2.19 8.94-5.54 8.94-3.37 0-5.54-2.98-5.54-8.94zm8.52 0c0-4.91-1.23-6.71-2.98-6.71s-2.98 1.79-2.98 6.71c0 4.96 1.23 6.82 2.98 6.82s2.98-1.86 2.98-6.82zm6.11 4.45v-6.47h-1.86v-2l1.98-.14.3-3.54h2.26v3.54h3.33v2.14h-3.33v6.5c0 1.54.53 2.33 1.86 2.33.44 0 1-.14 1.37-.3l.49 1.98c-.72.23-1.58.47-2.51.47-2.88-.02-3.89-1.81-3.89-4.51zm8.81-14.37h2.66v4.92l-.09 2.54c1.12-1.07 2.4-2.03 4.15-2.03 2.72 0 3.94 1.82 3.94 5.08v8.06h-2.68v-7.73c0-2.21-.65-3.1-2.17-3.1-1.19 0-2 .61-3.14 1.75v9.08h-2.66v-18.57zm18.37 17.09l1.26-1.72c1.14.91 2.26 1.47 3.63 1.47 1.54 0 2.26-.75 2.26-1.72 0-1.16-1.45-1.68-2.84-2.21-1.7-.65-3.66-1.56-3.66-3.73 0-2.14 1.72-3.75 4.54-3.75 1.72 0 3.12.7 4.17 1.51l-1.26 1.65c-.89-.65-1.79-1.12-2.86-1.12-1.4 0-2.05.7-2.05 1.58 0 1.09 1.33 1.52 2.72 2.03 1.79.68 3.77 1.47 3.77 3.89 0 2.14-1.7 3.89-4.87 3.89-1.77 0-3.58-.74-4.81-1.77zm12.44-2.72v-6.47h-1.86v-2l1.98-.14.3-3.54h2.26v3.54h3.33v2.14h-3.33v6.5c0 1.54.53 2.33 1.86 2.33.44 0 1-.14 1.37-.3l.49 1.98c-.72.23-1.58.47-2.51.47-2.89-.02-3.89-1.81-3.89-4.51zm8.64-.56v-8.06h2.68v7.73c0 2.21.63 3.07 2.14 3.07 1.19 0 2-.56 3.07-1.91v-8.9h2.68v12.81h-2.19l-.21-1.93h-.07c-1.16 1.35-2.42 2.23-4.19 2.23-2.72.01-3.91-1.78-3.91-5.04zm13.75-1.63c0-4.17 2.63-6.75 5.5-6.75 1.47 0 2.4.56 3.45 1.44l-.12-2.12v-4.75h2.68v18.56h-2.19l-.23-1.45h-.07c-.95.98-2.28 1.75-3.73 1.75-3.21 0-5.29-2.44-5.29-6.68zm8.83 2.91v-6.26c-.96-.86-1.86-1.17-2.82-1.17-1.79 0-3.24 1.7-3.24 4.47 0 2.91 1.14 4.52 3.14 4.52 1.08 0 1.99-.49 2.92-1.56zm5.81-2.91c0-4.17 2.84-6.75 5.85-6.75 3.4 0 5.22 2.44 5.22 6.08 0 .51-.05 1.05-.12 1.35h-8.31c.21 2.44 1.75 3.91 3.96 3.91 1.14 0 2.12-.35 3.05-.96l.93 1.7c-1.19.79-2.66 1.35-4.33 1.35-3.48 0-6.25-2.47-6.25-6.68zm8.75-1.17c0-2.21-1-3.49-2.86-3.49-1.61 0-3.03 1.23-3.28 3.49h6.14zm5.32-5.26h2.19l.21 1.77h.07c1.19-1.14 2.49-2.1 4.24-2.1 2.72 0 3.93 1.82 3.93 5.08v8.06h-2.68v-7.73c0-2.21-.65-3.1-2.17-3.1-1.19 0-2 .61-3.14 1.75v9.08h-2.66v-12.81zm14.96 8.62v-6.47h-1.86v-2l1.98-.14.3-3.54h2.26v3.54h3.33v2.14h-3.33v6.5c0 1.54.53 2.33 1.86 2.33.44 0 1-.14 1.37-.3l.49 1.98c-.72.23-1.58.47-2.51.47-2.89-.02-3.89-1.81-3.89-4.51zm7.11-3.38h6.15v1.98h-6.15v-1.98zm8.34 1.19c0-4.29 2.87-6.75 6.03-6.75 3.17 0 6.03 2.47 6.03 6.75 0 4.24-2.87 6.68-6.03 6.68-3.17 0-6.03-2.44-6.03-6.68zm9.32 0c0-2.73-1.26-4.54-3.28-4.54-2 0-3.26 1.82-3.26 4.54 0 2.7 1.26 4.49 3.26 4.49 2.02 0 3.28-1.79 3.28-4.49zm5.89-6.43h2.19l.21 2.31h.07c.91-1.65 2.26-2.63 3.63-2.63.63 0 1.05.09 1.44.28l-.49 2.33c-.44-.14-.77-.21-1.28-.21-1.05 0-2.31.72-3.12 2.75v7.99h-2.66v-12.82zm8.35 15.18c0-1.07.68-2.07 1.86-2.79v-.12c-.65-.4-1.17-1.07-1.17-2.12 0-1 .72-1.86 1.42-2.38v-.09c-.86-.67-1.68-1.89-1.68-3.4 0-2.91 2.31-4.61 4.96-4.61.72 0 1.37.14 1.86.33h4.54v2h-2.45c.49.51.84 1.37.84 2.35 0 2.79-2.12 4.4-4.8 4.4-.58 0-1.23-.14-1.79-.4-.42.37-.7.75-.7 1.35 0 .77.51 1.26 2.14 1.26h2.35c3.03 0 4.61.93 4.61 3.12 0 2.47-2.61 4.47-6.71 4.47-3.04.01-5.28-1.13-5.28-3.37zm9.43-.67c0-1.07-.84-1.4-2.4-1.4h-1.93c-.61 0-1.19-.07-1.72-.19-.77.56-1.09 1.21-1.09 1.86 0 1.26 1.3 2 3.42 2 2.23.01 3.72-1.08 3.72-2.27zm-1.6-10.23c0-1.72-1.07-2.72-2.42-2.72-1.35 0-2.42.98-2.42 2.72 0 1.7 1.09 2.75 2.42 2.75 1.32 0 2.42-1.05 2.42-2.75zm5.38 5.13c0-2.75 2.33-4.17 7.66-4.75-.02-1.49-.56-2.79-2.45-2.79-1.35 0-2.61.61-3.7 1.3l-1-1.82c1.33-.84 3.12-1.68 5.17-1.68 3.19 0 4.66 2.03 4.66 5.43v7.71h-2.19l-.23-1.47h-.07c-1.17 1-2.54 1.77-4.08 1.77-2.21 0-3.77-1.44-3.77-3.7zm7.66.09v-3.14c-3.8.47-5.08 1.42-5.08 2.87 0 1.26.86 1.77 2 1.77 1.13-.01 2.03-.54 3.08-1.5zm6.48-9.5h2.19l.21 1.77h.07c1.19-1.14 2.49-2.1 4.24-2.1 2.72 0 3.93 1.82 3.93 5.08v8.06h-2.68v-7.73c0-2.21-.65-3.1-2.17-3.1-1.19 0-2 .61-3.14 1.75v9.08h-2.66v-12.81zm14.18-3.98c0-.96.72-1.58 1.7-1.58s1.72.63 1.72 1.58c0 .93-.74 1.58-1.72 1.58s-1.7-.65-1.7-1.58zm.37 3.98h2.66v12.81h-2.66v-12.81zm5.52 11.36l6.31-9.22h-5.61v-2.14h8.99v1.42l-6.31 9.25h6.52v2.14h-9.9v-1.45zm11.42-4.93c0-4.17 2.84-6.75 5.85-6.75 3.4 0 5.22 2.44 5.22 6.08 0 .51-.05 1.05-.12 1.35h-8.31c.21 2.44 1.75 3.91 3.96 3.91 1.14 0 2.12-.35 3.05-.96l.93 1.7c-1.19.79-2.66 1.35-4.33 1.35-3.48 0-6.25-2.47-6.25-6.68zm8.76-1.17c0-2.21-1-3.49-2.86-3.49-1.61 0-3.03 1.23-3.28 3.49h6.14zm4.45 1.17c0-4.17 2.63-6.75 5.5-6.75 1.47 0 2.4.56 3.45 1.44l-.12-2.12v-4.75h2.68v18.56h-2.19l-.23-1.45h-.07c-.95.98-2.28 1.75-3.73 1.75-3.22 0-5.29-2.44-5.29-6.68zm8.83 2.91v-6.26c-.96-.86-1.86-1.17-2.82-1.17-1.79 0-3.24 1.7-3.24 4.47 0 2.91 1.14 4.52 3.14 4.52 1.08 0 1.98-.49 2.92-1.56zm10.56-9.34h2.7l1.7 6.94c.25 1.23.46 2.42.7 3.63h.09c.28-1.21.53-2.42.84-3.63l1.79-6.94h2.49l1.84 6.94c.3 1.23.56 2.42.86 3.63h.09c.26-1.21.47-2.4.75-3.63l1.65-6.94h2.52l-3.31 12.81h-3.21l-1.63-6.34c-.3-1.21-.54-2.38-.81-3.7h-.12c-.25 1.33-.49 2.51-.81 3.73l-1.56 6.31h-3.1l-3.47-12.81zm19.64 6.43c0-4.29 2.86-6.75 6.03-6.75s6.03 2.47 6.03 6.75c0 4.24-2.86 6.68-6.03 6.68s-6.03-2.44-6.03-6.68zm9.32 0c0-2.73-1.26-4.54-3.28-4.54-2 0-3.26 1.82-3.26 4.54 0 2.7 1.26 4.49 3.26 4.49 2.02 0 3.28-1.79 3.28-4.49zm5.9-6.43h2.19l.21 2.31h.07c.91-1.65 2.26-2.63 3.63-2.63.63 0 1.05.09 1.44.28l-.49 2.33c-.44-.14-.77-.21-1.28-.21-1.05 0-2.31.72-3.12 2.75v7.99h-2.66v-12.82zm9.53-5.75h2.61v11.97h.07l5.03-6.22h2.96l-4.36 5.19 4.84 7.62h-2.91l-3.47-5.8-2.16 2.49v3.31h-2.61v-18.56zm12.05 17.09l1.26-1.72c1.14.91 2.26 1.47 3.63 1.47 1.54 0 2.26-.75 2.26-1.72 0-1.16-1.45-1.68-2.84-2.21-1.7-.65-3.66-1.56-3.66-3.73 0-2.14 1.72-3.75 4.54-3.75 1.72 0 3.12.7 4.17 1.51l-1.26 1.65c-.89-.65-1.79-1.12-2.86-1.12-1.4 0-2.05.7-2.05 1.58 0 1.09 1.33 1.52 2.72 2.03 1.79.68 3.77 1.47 3.77 3.89 0 2.14-1.7 3.89-4.87 3.89-1.76 0-3.58-.74-4.81-1.77zm12.53-17.09h2.66v4.92l-.09 2.54c1.12-1.07 2.4-2.03 4.15-2.03 2.72 0 3.93 1.82 3.93 5.08v8.06h-2.68v-7.73c0-2.21-.65-3.1-2.17-3.1-1.19 0-2 .61-3.14 1.75v9.08h-2.66v-18.57zm13.56 12.18c0-4.29 2.87-6.75 6.03-6.75 3.17 0 6.03 2.47 6.03 6.75 0 4.24-2.87 6.68-6.03 6.68s-6.03-2.44-6.03-6.68zm9.32 0c0-2.73-1.26-4.54-3.28-4.54-2 0-3.26 1.82-3.26 4.54 0 2.7 1.26 4.49 3.26 4.49 2.02 0 3.28-1.79 3.28-4.49zm5.9-6.43h2.19l.21 1.4h.07c1.12-.93 2.52-1.72 3.94-1.72 3.26 0 5.08 2.59 5.08 6.52 0 4.4-2.63 6.92-5.52 6.92-1.14 0-2.28-.51-3.38-1.44l.07 2.19v4.14H785v-18.01zm8.71 6.24c0-2.68-.86-4.33-3-4.33-1 0-1.96.51-3.05 1.56v6.26c1 .86 2 1.17 2.79 1.17 1.86 0 3.26-1.65 3.26-4.66zm-370.48 28.15c0-4.29 2.87-6.75 6.03-6.75s6.03 2.47 6.03 6.75c0 4.24-2.86 6.68-6.03 6.68s-6.03-2.44-6.03-6.68zm9.32 0c0-2.73-1.26-4.54-3.28-4.54-2 0-3.26 1.82-3.26 4.54 0 2.7 1.26 4.49 3.26 4.49 2.02.01 3.28-1.79 3.28-4.49zm5.9-6.43h2.19l.21 1.77h.07c1.19-1.14 2.49-2.1 4.24-2.1 2.73 0 3.94 1.82 3.94 5.08v8.06h-2.68v-7.73c0-2.21-.65-3.1-2.17-3.1-1.19 0-2 .61-3.14 1.75v9.08h-2.65v-12.81zm19.78-5.75h2.66v4.92l-.09 2.54c1.12-1.07 2.4-2.03 4.15-2.03 2.72 0 3.93 1.82 3.93 5.08v8.06h-2.68v-7.73c0-2.21-.65-3.1-2.17-3.1-1.19 0-2 .61-3.14 1.75v9.08h-2.66v-18.57zm14.31 13.81v-8.06h2.68v7.73c0 2.21.63 3.07 2.14 3.07 1.19 0 2-.56 3.07-1.91v-8.9h2.68v12.81h-2.19l-.21-1.93h-.07c-1.16 1.35-2.42 2.23-4.19 2.23-2.72.01-3.91-1.78-3.91-5.04zm14.61-8.06h2.19l.21 1.79h.07c1.09-1.17 2.38-2.12 3.96-2.12 1.91 0 2.98.89 3.54 2.35 1.26-1.35 2.56-2.35 4.17-2.35 2.68 0 3.93 1.82 3.93 5.08v8.06h-2.68v-7.73c0-2.21-.7-3.1-2.14-3.1-.89 0-1.82.58-2.89 1.75v9.08h-2.68v-7.73c0-2.21-.68-3.1-2.14-3.1-.86 0-1.82.58-2.89 1.75v9.08h-2.66v-12.81zm21.21 9.41c0-2.75 2.33-4.17 7.66-4.75-.02-1.49-.56-2.79-2.45-2.79-1.35 0-2.61.61-3.7 1.3l-1-1.82c1.33-.84 3.12-1.68 5.17-1.68 3.19 0 4.66 2.03 4.66 5.43v7.71h-2.19l-.23-1.47h-.07c-1.17 1-2.54 1.77-4.08 1.77-2.21 0-3.77-1.44-3.77-3.7zm7.66.1v-3.14c-3.8.47-5.08 1.42-5.08 2.87 0 1.26.86 1.77 2 1.77 1.12-.01 2.03-.55 3.08-1.5zm6.48-9.51h2.19l.21 1.77h.07c1.19-1.14 2.49-2.1 4.24-2.1 2.72 0 3.93 1.82 3.93 5.08v8.06h-2.68v-7.73c0-2.21-.65-3.1-2.17-3.1-1.19 0-2 .61-3.14 1.75v9.08h-2.66v-12.81zm13.61 5.24h6.15v1.98h-6.15v-1.98zm8.34 1.19c0-4.29 2.96-6.75 6.34-6.75 1.63 0 2.82.65 3.75 1.47l-1.33 1.75c-.7-.63-1.42-1-2.31-1-2.14 0-3.68 1.82-3.68 4.54 0 2.7 1.47 4.49 3.61 4.49 1.07 0 2.03-.51 2.8-1.17l1.09 1.77a6.244 6.244 0 0 1-4.15 1.58c-3.46 0-6.12-2.44-6.12-6.68zm11.44 0c0-4.29 2.87-6.75 6.03-6.75 3.17 0 6.03 2.47 6.03 6.75 0 4.24-2.87 6.68-6.03 6.68s-6.03-2.44-6.03-6.68zm9.32 0c0-2.73-1.26-4.54-3.28-4.54-2 0-3.26 1.82-3.26 4.54 0 2.7 1.26 4.49 3.26 4.49 2.02.01 3.28-1.79 3.28-4.49zm5.9-6.43h2.19l.21 1.79h.07c1.09-1.17 2.38-2.12 3.96-2.12 1.91 0 2.98.89 3.54 2.35 1.26-1.35 2.56-2.35 4.17-2.35 2.68 0 3.93 1.82 3.93 5.08v8.06h-2.68v-7.73c0-2.21-.7-3.1-2.14-3.1-.89 0-1.82.58-2.89 1.75v9.08h-2.68v-7.73c0-2.21-.68-3.1-2.14-3.1-.86 0-1.82.58-2.89 1.75v9.08h-2.66v-12.81zm21.95 0h2.19l.21 1.4h.07c1.12-.93 2.52-1.72 3.94-1.72 3.26 0 5.08 2.59 5.08 6.52 0 4.4-2.63 6.92-5.52 6.92-1.14 0-2.28-.51-3.38-1.44l.07 2.19v4.14h-2.66v-18.01zm8.71 6.24c0-2.68-.86-4.33-3-4.33-1 0-1.96.51-3.05 1.56v6.26c1 .86 2 1.17 2.79 1.17 1.86 0 3.26-1.65 3.26-4.66zm5.81 1.82v-8.06h2.68v7.73c0 2.21.63 3.07 2.14 3.07 1.19 0 2-.56 3.07-1.91v-8.9h2.68v12.81h-2.19l-.21-1.93h-.07c-1.16 1.35-2.42 2.23-4.19 2.23-2.72.01-3.91-1.78-3.91-5.04zm15.03.56v-6.47h-1.86v-2l1.98-.14.3-3.54h2.26v3.54h3.33v2.14h-3.33v6.5c0 1.54.53 2.33 1.86 2.33.44 0 1-.14 1.37-.3l.49 1.98c-.72.23-1.58.47-2.51.47-2.89-.02-3.89-1.81-3.89-4.51zm7.5-2.19c0-4.17 2.84-6.75 5.85-6.75 3.4 0 5.22 2.44 5.22 6.08 0 .51-.05 1.05-.12 1.35h-8.31c.21 2.44 1.75 3.91 3.96 3.91 1.14 0 2.12-.35 3.05-.96l.93 1.7c-1.19.79-2.66 1.35-4.33 1.35-3.48 0-6.25-2.46-6.25-6.68zm8.76-1.16c0-2.21-1-3.49-2.86-3.49-1.61 0-3.03 1.23-3.29 3.49h6.15zm5.31-5.27h2.19l.21 2.31h.07c.91-1.65 2.26-2.63 3.63-2.63.63 0 1.05.09 1.44.28l-.49 2.33c-.44-.14-.77-.21-1.28-.21-1.05 0-2.31.72-3.12 2.75v7.99h-2.66v-12.82zm14.41-3.98c0-.96.72-1.58 1.7-1.58s1.72.63 1.72 1.58c0 .93-.74 1.58-1.72 1.58s-1.7-.65-1.7-1.58zm.37 3.98h2.66v12.81h-2.66v-12.81zm6.69 0h2.19l.21 1.77h.07c1.19-1.14 2.49-2.1 4.24-2.1 2.72 0 3.93 1.82 3.93 5.08v8.06h-2.68v-7.73c0-2.21-.65-3.1-2.17-3.1-1.19 0-2 .61-3.14 1.75v9.08h-2.66v-12.81zm14.96 8.62v-6.47h-1.86v-2l1.98-.14.3-3.54h2.26v3.54h3.33v2.14h-3.33v6.5c0 1.54.53 2.33 1.86 2.33.44 0 1-.14 1.37-.3l.49 1.98c-.72.23-1.58.47-2.51.47-2.89-.02-3.89-1.81-3.89-4.51zm7.5-2.19c0-4.17 2.84-6.75 5.85-6.75 3.4 0 5.22 2.44 5.22 6.08 0 .51-.05 1.05-.12 1.35h-8.31c.21 2.44 1.75 3.91 3.96 3.91 1.14 0 2.12-.35 3.05-.96l.93 1.7c-1.19.79-2.66 1.35-4.33 1.35-3.48 0-6.25-2.46-6.25-6.68zm8.76-1.16c0-2.21-1-3.49-2.86-3.49-1.61 0-3.03 1.23-3.28 3.49h6.14zm5.31-5.27h2.19l.21 2.31h.07c.91-1.65 2.26-2.63 3.63-2.63.63 0 1.05.09 1.44.28l-.49 2.33c-.44-.14-.77-.21-1.28-.21-1.05 0-2.31.72-3.12 2.75v7.99h-2.66v-12.82zm8.14 9.41c0-2.75 2.33-4.17 7.66-4.75-.02-1.49-.56-2.79-2.45-2.79-1.35 0-2.61.61-3.7 1.3l-1-1.82c1.33-.84 3.12-1.68 5.17-1.68 3.19 0 4.66 2.03 4.66 5.43v7.71h-2.19l-.23-1.47h-.07c-1.17 1-2.54 1.77-4.08 1.77-2.21 0-3.77-1.44-3.77-3.7zm7.66.1v-3.14c-3.8.47-5.08 1.42-5.08 2.87 0 1.26.86 1.77 2 1.77 1.12-.01 2.03-.55 3.08-1.5zm5.57-3.08c0-4.29 2.96-6.75 6.34-6.75 1.63 0 2.82.65 3.75 1.47l-1.33 1.75c-.7-.63-1.42-1-2.31-1-2.14 0-3.68 1.82-3.68 4.54 0 2.7 1.47 4.49 3.61 4.49 1.07 0 2.03-.51 2.8-1.17l1.09 1.77a6.244 6.244 0 0 1-4.15 1.58c-3.46 0-6.12-2.44-6.12-6.68zm13.12 2.19v-6.47h-1.86v-2l1.98-.14.3-3.54h2.26v3.54h3.33v2.14h-3.33v6.5c0 1.54.53 2.33 1.86 2.33.44 0 1-.14 1.37-.3l.49 1.98c-.72.23-1.58.47-2.51.47-2.88-.02-3.89-1.81-3.89-4.51zm8.44-12.6c0-.96.72-1.58 1.7-1.58s1.72.63 1.72 1.58c0 .93-.74 1.58-1.72 1.58s-1.7-.65-1.7-1.58zm.37 3.98h2.66v12.81h-2.66v-12.81zm5.78 6.43c0-4.29 2.86-6.75 6.03-6.75 3.17 0 6.03 2.47 6.03 6.75 0 4.24-2.87 6.68-6.03 6.68s-6.03-2.44-6.03-6.68zm9.32 0c0-2.73-1.26-4.54-3.28-4.54-2 0-3.26 1.82-3.26 4.54 0 2.7 1.26 4.49 3.26 4.49 2.02.01 3.28-1.79 3.28-4.49zm5.9-6.43h2.19l.21 1.77h.07c1.19-1.14 2.49-2.1 4.24-2.1 2.72 0 3.93 1.82 3.93 5.08v8.06h-2.68v-7.73c0-2.21-.65-3.1-2.17-3.1-1.19 0-2 .61-3.14 1.75v9.08h-2.66v-12.81zM456.63 98.12h-5.91c.89.72 1.81 1.54 2.36 2.15l-2.46 2.15h2.8v8.64h-10.83v2.02h12.5s-.03.99-.1 1.47c-.34 4.54-.75 6.76-1.64 7.65-.72.82-1.54 1.09-2.6 1.19-.96.1-2.56.14-4.34.07-.07-1.2-.48-2.7-1.13-3.69 1.44.14 2.87.17 3.49.14.51 0 .85-.03 1.16-.31.34-.34.61-1.26.82-3.14h-8.16v8.44h-4v-6.66c-2.87 2.8-6.66 5.12-10.38 6.53-.58-.99-1.71-2.46-2.56-3.21 3.55-1.06 7.24-2.94 9.91-5.09h-7.34c.51-2.33 1.02-5.88 1.26-8.75h9.12v-1.95h-10.38v-3.35h6.97c-.75-.96-2.08-2.22-3.14-3.14l1.3-1.13h-2.02c-1.09 1.71-2.32 3.25-3.48 4.41-.58-.68-1.95-2.12-2.73-2.73 2.02-1.77 3.89-4.47 4.95-7.17l3.59 1.03c-.17.45-.38.92-.61 1.37h7.52v3.11h-4.88c.92.79 1.81 1.64 2.32 2.26l-2.19 2.02h14.42c-.75-.92-2.22-2.15-3.31-3.04l1.47-1.26h-2.8c-.82 1.3-1.74 2.43-2.66 3.32-.68-.68-2.15-1.85-3.04-2.36 1.88-1.61 3.42-4 4.27-6.42l3.69.92c-.17.48-.38.99-.58 1.47h9.4v3.04zm-18.03 12.95h-5.57c-.1.68-.17 1.37-.27 2.02h5.84v-2.02zm10.79-5.3h-6.8v1.95h6.8v-1.95zm44.78 3.7h-13.36v15.4h-4.44v-15.4h-13.15v-4.24h13.15V93h4.44v12.23h13.36v4.24zm35.55-4.89h-22c0 5.91-.58 14.79-4.17 20.43-.79-.65-2.6-1.74-3.62-2.12 3.42-5.23 3.66-12.88 3.66-18.31V94.53h26.13v10.05zm-4.1-6.39h-17.9v2.7h17.9v-2.7zm4.71 9.09v17.63h-3.86v-1.23h-17.73v-16.4h3.89v12.85h13.84v-12.85h3.86zm-12.57 7.75v-3.35h-3.38v-3.28h3.38v-3.01h3.69v3.01h3.42v3.28h-3.42v3.35h4.07v3.28h-11.89v-3.28h4.13zM555.77 93c-.03 1.44-.1 3.28-.24 5.33.48 4.61 2.56 17.49 14.48 22.75-1.26.99-2.42 2.36-2.97 3.52-7.58-3.62-11.38-10.28-13.36-16.16-1.88 6.01-5.47 12.2-12.57 16.36-.72-1.09-2.02-2.39-3.38-3.32 13.87-7.41 13.22-22.72 13.36-28.49h4.68zm27.93 19.3c-.28-.82-.82-2.08-1.4-3.31v15.88h-3.49v-13.19c-.68 2.39-1.47 4.55-2.32 6.11-.31-1.16-1.06-2.97-1.57-4.03 1.57-2.43 2.94-6.83 3.69-10.69h-2.8v-3.76h3v-6.35h3.49v6.35h2.29v3.76h-2.29v1.5c.75 1.06 2.7 4.2 3.14 5.02l-1.74 2.71zm21.62 2.36c-.99 1.88-2.26 3.56-3.76 5.02.65.72 1.33 1.13 2.12 1.23.65.07 1.06-1.16 1.3-3.56.58.79 1.91 1.78 2.56 2.15-.89 4.24-2.26 5.43-3.72 5.33-2.01-.17-3.69-1.2-5.02-2.9-1.61 1.13-3.45 2.08-5.4 2.84-.44-.72-1.4-1.95-2.08-2.6 2.19-.75 4.17-1.81 5.88-3.07-.72-1.57-1.27-3.38-1.74-5.47h-4.65c-.03.24-.03.51-.07.75 1.4 1.13 3.35 2.7 4.34 3.69l-2.46 2.39c-.58-.68-1.57-1.57-2.56-2.46-.79 2.43-2.19 4.88-4.65 6.83-.51-.65-1.95-1.91-2.7-2.32 3.62-2.66 4.55-6.15 4.65-8.88h-2.02v-3.11h9.53c-.58-3.48-.92-7.52-1.16-11.96-1.33 2.53-3.01 5.09-4.65 7.1l1.91-.21c-.17-.51-.31-1.06-.45-1.54l2.36-.61c.55 1.61 1.13 3.66 1.37 4.92l-2.53.75c-.04-.31-.1-.72-.21-1.16-4.1.61-4.88.85-5.36 1.06-.17-.55-.61-2.02-.96-2.77.58-.14 1.13-.68 1.71-1.5.31-.38.92-1.3 1.64-2.5-1.81.24-2.39.41-2.73.58-.17-.61-.65-1.98-.96-2.73.45-.14.85-.55 1.23-1.23.38-.62 1.64-3.08 2.29-5.47l2.9.75c-.78 1.98-1.88 4.07-2.94 5.71l1.54-.14c.34-.68.68-1.4.95-2.12l2.84.96c-.07-1.64-.14-3.42-.21-5.19h3.35c.14 6.7.58 12.64 1.43 17.29h3.14c-.58-.51-1.23-1.02-1.77-1.47l1.54-1.26c-1.61.27-2.12.45-2.43.61-.14-.58-.61-2.05-.92-2.8.55-.17 1.06-.72 1.67-1.57.31-.34.92-1.27 1.57-2.43-1.78.24-2.33.41-2.66.58-.21-.62-.65-1.95-.99-2.73.45-.1.82-.55 1.2-1.16.34-.58 1.47-2.9 2.05-5.16l2.9.79c-.68 1.84-1.67 3.72-2.66 5.26l1.54-.1c.31-.68.61-1.44.89-2.12l2.94.96c-1.26 2.56-2.94 5.2-4.54 7.24l1.88-.21c-.17-.48-.31-.99-.48-1.44l2.33-.65c.58 1.6 1.3 3.72 1.57 4.95l-2.43.85c-.07-.41-.17-.89-.31-1.4-.85.14-1.57.24-2.15.34.92.68 2.02 1.5 2.6 2.09l-.89.82h2.73v3.11h-3.96l2.73 1.05zm-6.42-1.03c.27 1.13.58 2.08.92 2.97.79-.92 1.47-1.91 2.02-2.97h-2.94zm45.7 6.43v3.96h-31.05v-3.96h18.86c.21-1.4.45-2.87.68-4.41h-15.17c1.3-4.58 2.94-11.68 3.93-17.42h-7.28v-3.89h29v3.89h-17.29a132.4 132.4 0 0 0-.85 4.48h9.8l.68-.17 3.11.38c-.51 4.92-1.5 11.54-2.39 17.15h7.97zm-10.94-8.2c.28-1.88.51-3.76.72-5.37h-9.77c-.41 1.88-.82 3.72-1.2 5.37h10.25zm48.13-11.21s-.03 1.33-.03 1.81c-.31 13.97-.58 18.93-1.67 20.5-.78 1.13-1.57 1.47-2.7 1.71-1.03.2-2.6.17-4.24.14-.07-1.13-.51-2.77-1.2-3.89 1.5.14 2.8.17 3.45.17.51 0 .86-.14 1.16-.58.72-.92 1.06-5.09 1.26-16.12h-3.07c-.45 9.15-2.01 16.19-7.76 20.73-.51-.82-1.5-1.95-2.39-2.7-4.92.51-9.84 1.03-13.53 1.33l-.48-3.42c1.91-.14 4.31-.31 6.93-.48v-2.05h-6.01v-2.87h6.01v-1.33h-5.87v-10.56h5.87v-1.33h-6.73v-2.94h6.73V97.4c-1.98.14-3.93.24-5.77.27-.14-.82-.51-2.08-.89-2.87 5.05-.28 10.97-.85 14.72-1.67l1.77 3.04c-1.81.38-3.93.68-6.15.92v1.67h6.56v1.88h3.21c.03-2.26.03-4.61.03-7.14h3.9c0 2.5 0 4.88-.07 7.14h6.96zm-26.92 6.46h2.66v-1.5h-2.66v1.5zm2.66 3.96v-1.54h-2.66v1.54h2.66zm3.69 8.47c1.95-.13 3.96-.31 5.94-.48 2.66-3.69 3.48-8.57 3.72-14.69h-3.11v-2.66h-6.56v1.33h6.05v10.56h-6.05v1.33h6.18v2.87h-6.18v1.74zm2.67-12.43v-1.5h-2.66v1.5h2.66zm-2.67 2.42v1.54h2.66v-1.54h-2.66zm58.54 8.89v4.1h-31.05v-4.1h13.02v-17.66h-11.17v-4.24h27.29v4.24h-11.48v17.66h13.39zm17.48-24.09c-.89 2.39-2.02 4.82-3.28 7.11v23.4h-4.1v-17.08c-.72.85-1.44 1.71-2.12 2.46-.38-.99-1.54-3.32-2.25-4.34 3.11-3.07 6.08-7.93 7.79-12.78l3.96 1.23zm10.83 8.06v3.59h8.85v3.69h-8.85v3.86h9.29v3.76h-9.29v7.58h-4.17v-22.48h-1.3c-1.37 2.53-2.94 4.85-4.48 6.63-.65-.75-2.26-2.19-3.11-2.84 3.01-3.07 5.71-7.99 7.24-12.88l3.93.99c-.48 1.43-1.02 2.83-1.67 4.24h13.26v3.86h-9.7zm35.82.17v4.13h9.77s-.03 1.19-.07 1.71c-.41 9.39-.82 13.19-1.95 14.48-.79 1.06-1.64 1.4-2.9 1.54-1.02.17-2.87.17-4.68.1-.07-1.2-.61-2.87-1.33-4 1.74.14 3.35.17 4.1.17.61 0 .96-.1 1.3-.48.65-.68 1.02-3.35 1.3-9.77h-5.71c-.58 4.95-2.6 10.42-8.98 14.41-.72-.89-2.05-2.08-3.11-2.8 7.24-4.61 8.2-10.66 8.2-15.17v-4.34h-4.95v2.43h-3.28V113c1.2-.41 2.36-.85 3.52-1.23l.78 3.76c-4.03 1.61-8.33 3.21-11.75 4.51l-.92-4.27c1.23-.34 2.73-.82 4.41-1.4v-9.39h-3.76v-3.82h3.76v-7.55h3.96v7.55h3.18v-2.5h9.12c-.27-1.37-.92-3.52-1.47-5.13l3.82-.92c.62 1.61 1.37 3.79 1.71 5.09l-3.52.96h10.79v3.89h-11.34z" fill="#fff"/></g></svg>