<svg xmlns="http://www.w3.org/2000/svg" viewBox="0 0 796.01 709.62"><style>.st37{fill:#69b1e2}</style><g id="圖層_3"><path class="st37" d="M107.64 514.58l6.66-8.11c3.49 2.97 8.04 5.01 11.93 5.01 4.35 0 6.4-1.65 6.4-4.29 0-2.84-2.7-3.76-6.92-5.54l-6.26-2.64c-5.14-2.04-9.96-6.33-9.96-13.45 0-8.24 7.39-14.84 17.8-14.84 5.67 0 11.67 2.18 15.96 6.46l-5.87 7.38c-3.23-2.44-6.26-3.76-10.09-3.76-3.63 0-5.87 1.45-5.87 4.09 0 2.7 3.1 3.76 7.45 5.47l6.13 2.44c6.07 2.44 9.69 6.53 9.69 13.45 0 8.18-6.86 15.36-18.73 15.36-6.39.02-13.24-2.35-18.32-7.03zm55.31-11.21l-14.77-31.72h12.53l4.09 10.88c1.32 3.69 2.57 7.12 3.96 10.95h.26c1.38-3.82 2.7-7.25 4.09-10.95l4.09-10.88h12.33l-14.84 31.72v17.34h-11.74v-17.34zm34.61-31.72h12.73l7.78 21.17c.99 2.84 1.78 5.93 2.7 8.97h.33c.99-3.03 1.78-6.13 2.7-8.97l7.52-21.17h12.79v49.06h-10.75V503.9c0-4.88.92-12.2 1.52-17.01h-.26l-4.09 11.74-6.59 17.93h-6.46l-6.66-17.93-3.96-11.74h-.26c.59 4.81 1.52 12.13 1.52 17.01v16.81h-10.55v-49.06zm60.85 0h17.14c10.15 0 18.26 2.7 18.26 12.13 0 4.35-2.44 9.1-6.4 10.62v.26c4.95 1.32 8.7 5.01 8.7 11.54 0 10.02-8.51 14.51-19.19 14.51h-18.53v-49.06zm16.68 19.45c5.01 0 7.25-2.18 7.25-5.54 0-3.49-2.31-4.95-7.25-4.95h-4.88v10.48h4.88zm.99 20.58c5.67 0 8.57-2.04 8.57-6.26 0-4.02-2.84-5.6-8.57-5.6h-5.87v11.87h5.87zm31.18-40.03h11.8v49.06h-11.8v-49.06zm23.86 24.27c0-16.09 9.1-25.19 22.48-25.19s22.48 9.17 22.48 25.19c0 16.09-9.1 25.72-22.48 25.72s-22.48-9.63-22.48-25.72zm32.97 0c0-9.49-4.02-15.1-10.48-15.1s-10.42 5.6-10.42 15.1c0 9.56 3.96 15.56 10.42 15.56s10.48-6 10.48-15.56zm31.45-14.51h-13.25v-9.76h38.37v9.76h-13.32v39.3h-11.8v-39.3zm35.72-9.76h31.12v9.76h-19.32v9.1h16.42v9.89h-16.42v10.42h20.05v9.89h-31.85v-49.06zm-38.42-52.57v-43.92h48.08v-19.42h-48.08V325.7h55.94v-19.65h-55.94V144.01c3.29-2.75 5.38-6.88 5.38-11.5 0-8.27-6.71-14.98-14.98-14.98s-14.98 6.71-14.98 14.98c0 4.51 2.01 8.55 5.17 11.3v162.24H334.6l12.48-34.21H326.5l-29.12 80.21h20.8l9.71-26.35h45.54v30.05h-45.77v19.42h45.77v43.92h-70.27v19.65h159.96v-19.65h-70.28zm182.04-52.76h76.69v35.36h-76.69z"/><path class="st37" d="M775.75 415.03c-6.28 0-11.65 3.87-13.88 9.36H639.3l6.57-13.15h-15.56l-6.35 13.15h-19.94l-6.79-13.15h-15.56l6.79 13.15H558.9v-66.83h104.28v-13.8h-90.94v-9.2h84.59v-54.78h-24.76v-11.83H619.8v11.83h-12.93v-11.83h-12.71v11.83h-24.54v37.91h-5.24V270.8h-60.6v46.89h-14.36v30.68h13.59v215.51c-4.29 2.71-7.15 7.48-7.15 12.93 0 8.45 6.85 15.29 15.29 15.29 8.45 0 15.29-6.85 15.29-15.29 0-5.51-2.92-10.32-7.29-13.01V407.74h23.59v33.09h16.15v-2.41h204.44a14.97 14.97 0 0 0 12.41 6.58c8.27 0 14.98-6.71 14.98-14.98.01-8.28-6.69-14.99-14.97-14.99zM632.07 291.39h13.15v8.98h-13.15v-8.98zm0 21.91h13.15v9.42h-13.15v-9.42zm-25.2-21.91h12.93v8.98h-12.93v-8.98zm0 21.91h12.93v9.42h-12.93v-9.42zm-25.63-21.91h12.93v8.98h-12.93v-8.98zm0 21.91h12.93v9.42h-12.93v-9.42zm-63.1-30.24h25.64v10.3H524.3v24.32h-6.15v-34.62zm25.64 21.91v12.71h-6.15v-12.71h6.15zm-1.02 88.96h-23.59v-13.15h23.59v13.15zm0-26.95h-23.59v-11.17h23.59v11.17zM557.11 342h-52.3v-11.17h52.3V342zm-343.37 62.75l25.66 32.59h23.8l-25.89-32.59zm-106.1 32.59h23.11l24.04-32.59h-23.11zm119.5-70.73v-47.85h33.52V300.5h-33.52v-29.82h-18.26v29.82h-49.47v-29.82h-18.26v29.82h-33.52v18.26h33.52v47.85H31.6c-2.75-3.19-6.81-5.22-11.35-5.22-8.27 0-14.98 6.71-14.98 14.98s6.71 14.98 14.98 14.98c5.01 0 9.44-2.47 12.16-6.25h238.65v-18.49h-43.92zm-18.26 0h-49.47v-47.85h49.47v47.85z"/></g></svg>