<svg id="圖層_1" data-name="圖層 1" xmlns="http://www.w3.org/2000/svg" xmlns:xlink="http://www.w3.org/1999/xlink" viewBox="0 0 883 621"><defs><style>.cls-1{isolation:isolate}.cls-23{fill:#68b0e1}.cls-24{fill:#cf3076}</style><radialGradient id="未命名漸層" cx="1371.82" cy="-392.06" r="86.97" gradientTransform="matrix(0 -1 -1 0 -49.26 1846.15)" gradientUnits="userSpaceOnUse"><stop offset="0" stop-color="#21abda"/><stop offset="1" stop-color="#e52676"/></radialGradient><radialGradient id="未命名漸層_8" data-name="未命名漸層 8" cx="1638.04" cy="-461.19" r="45.3" gradientTransform="matrix(1 0 0 -1 0 621)" xlink:href="#未命名漸層"/><radialGradient id="未命名漸層_9" data-name="未命名漸層 9" cx="1508.92" cy="-237.59" r="104.9" gradientTransform="matrix(1 0 0 -1 0 621)" xlink:href="#未命名漸層"/><radialGradient id="未命名漸層_10" data-name="未命名漸層 10" cx="1659.43" cy="-347.09" r="99.55" gradientTransform="matrix(1 0 0 -1 0 621)" xlink:href="#未命名漸層"/><radialGradient id="未命名漸層_11" data-name="未命名漸層 11" cx="1396.07" cy="-218.51" r="76.11" gradientTransform="matrix(1 0 0 -1 0 621)" xlink:href="#未命名漸層"/><linearGradient id="未命名漸層_15" data-name="未命名漸層 15" x1="1522.51" y1="-391.02" x2="1523.04" y2="-519.51" gradientTransform="matrix(0 -1 -1 0 -49.26 1846.15)" gradientUnits="userSpaceOnUse"><stop offset="0" stop-color="#21abda"/><stop offset=".11" stop-color="#24a9d8"/><stop offset=".19" stop-color="#2ea2d3"/><stop offset=".27" stop-color="#4096ca"/><stop offset=".35" stop-color="#5886be"/><stop offset=".42" stop-color="#7771ae"/><stop offset=".49" stop-color="#9d579b"/><stop offset=".56" stop-color="#ca3884"/><stop offset=".6" stop-color="#e52676"/></linearGradient><linearGradient id="未命名漸層_20" data-name="未命名漸層 20" x1="1710.78" y1="-383.47" x2="1721.36" y2="-650.45" gradientTransform="matrix(0 -1 -1 0 -49.26 1846.15)" xlink:href="#未命名漸層"/><linearGradient id="未命名漸層_21" data-name="未命名漸層 21" x1="1747.48" y1="-382.01" x2="1758.06" y2="-649" gradientTransform="matrix(0 -1 -1 0 -49.26 1846.15)" xlink:href="#未命名漸層"/><linearGradient id="未命名漸層_22" data-name="未命名漸層 22" x1="1761.48" y1="-381.46" x2="1772.06" y2="-648.44" gradientTransform="matrix(0 -1 -1 0 -49.26 1846.15)" xlink:href="#未命名漸層"/><linearGradient id="未命名漸層_23" data-name="未命名漸層 23" x1="1267.33" y1="-401.04" x2="1277.92" y2="-668.03" gradientTransform="matrix(0 -1 -1 0 -49.26 1846.15)" xlink:href="#未命名漸層"/><linearGradient id="未命名漸層_24" data-name="未命名漸層 24" x1="1326.51" y1="-398.7" x2="1337.09" y2="-665.68" gradientTransform="matrix(0 -1 -1 0 -49.26 1846.15)" xlink:href="#未命名漸層"/><linearGradient id="未命名漸層_25" data-name="未命名漸層 25" x1="1320.05" y1="-398.95" x2="1330.63" y2="-665.94" gradientTransform="matrix(0 -1 -1 0 -49.26 1846.15)" xlink:href="#未命名漸層"/><linearGradient id="未命名漸層_26" data-name="未命名漸層 26" x1="1488.75" y1="-392.27" x2="1499.33" y2="-659.25" gradientTransform="matrix(0 -1 -1 0 -49.26 1846.15)" xlink:href="#未命名漸層"/><linearGradient id="未命名漸層_27" data-name="未命名漸層 27" x1="1595.87" y1="-388.02" x2="1606.45" y2="-655.01" gradientTransform="matrix(0 -1 -1 0 -49.26 1846.15)" xlink:href="#未命名漸層"/><linearGradient id="未命名漸層_28" data-name="未命名漸層 28" x1="1622.34" y1="-386.97" x2="1632.93" y2="-653.96" gradientTransform="matrix(0 -1 -1 0 -49.26 1846.15)" xlink:href="#未命名漸層"/><linearGradient id="未命名漸層_29" data-name="未命名漸層 29" x1="1623.49" y1="-386.93" x2="1634.07" y2="-653.91" gradientTransform="matrix(0 -1 -1 0 -49.26 1846.15)" xlink:href="#未命名漸層"/><linearGradient id="未命名漸層_30" data-name="未命名漸層 30" x1="1568.86" y1="-389.09" x2="1579.44" y2="-656.08" gradientTransform="matrix(0 -1 -1 0 -49.26 1846.15)" xlink:href="#未命名漸層"/><linearGradient id="未命名漸層_31" data-name="未命名漸層 31" x1="1469.3" y1="-393.04" x2="1479.89" y2="-660.02" gradientTransform="matrix(0 -1 -1 0 -49.26 1846.15)" xlink:href="#未命名漸層"/></defs><g id="圖層_1-2" data-name="圖層 1-2"><image class="cls-1" width="583" height="584" transform="translate(300 31)" xlink:href="section1_circle1.png"/><image class="cls-1" width="561" height="621" xlink:href="section1_circle2.png" opacity=".8"/><path d="M455.2 439.1a178.9 178.9 0 0 1-226.7 40l-3.5 6a185.8 185.8 0 0 0 235.4-41.5l-4.8-5z" fill="url(#未命名漸層)"/><path d="M411.1 162.9a184.7 184.7 0 0 0-60.7-22.1l-1.2 6.8a177.6 177.6 0 0 1 58.4 21.3 180.3 180.3 0 0 1 46.3 38.5l4.7-5.1a187.4 187.4 0 0 0-47.5-39.4z" fill="url(#未命名漸層_8)"/><path d="M132.1 324a185 185 0 0 0 43.6 119.5l5.3-4.4A178.3 178.3 0 0 1 139 324a178.4 178.4 0 0 1 42-115.1 180.5 180.5 0 0 1 47.6-40l-3.5-6a187.4 187.4 0 0 0-81.8 97.4 185.2 185.2 0 0 0-11.2 63.7z" fill="url(#未命名漸層_9)"/><path d="M217 148.9a200.8 200.8 0 0 1 66-24 204.4 204.4 0 0 1 70.2 0 200.9 200.9 0 0 1 66 24l5.2-9a213.6 213.6 0 0 0-23.6-11.7 210.9 210.9 0 0 0-45.8-13.6l-36.9-3.2a213.9 213.9 0 0 0-36.9 3.2 212.2 212.2 0 0 0-113.4 59.1q-6.6 6.6-12.5 13.7l8 6.7a203.1 203.1 0 0 1 53.7-45.2z" fill="url(#未命名漸層_10)"/><path d="M163.2 454a201.2 201.2 0 0 1-47.3-130h-10.4a211.6 211.6 0 0 0 12.8 72.7q1.8 5.1 3.9 10a211.4 211.4 0 0 0 33 53.9q6 7.1 12.5 13.7a212.6 212.6 0 0 0 44 33.8l5.2-9a203.1 203.1 0 0 1-53.7-45.1z" fill="url(#未命名漸層_11)"/><path fill="none" d="M633.2 255.1h75v12.78h-75z"/><path d="M480.4 324a161.4 161.4 0 0 0-37.2-103.3l-.7 1A160.1 160.1 0 0 1 479.3 324 160 160 0 0 1 444 424.5l.7 1A161.1 161.1 0 0 0 480.4 324z" fill="#e73632"/><path d="M420.5 324a102.2 102.2 0 0 0-6.2-35l-.7-1.8c-.9 4.2-39.7 7.5-40.3 11.9s33 .8 37.1 12.1c1.2 3.4-29.9 5.6-3 13.8 6.8 2-40.4 4.9-43.5 8.8s44.8.8 29.3 11.6c-3.5 2.4 20 10 21 14.1 0-.1.1-.2.1-.4a102.2 102.2 0 0 0 6.2-35.1z" fill="url(#未命名漸層_15)"/><path d="M574.8 76.3v23.4h7.4v25.2h-7.4v50.3l7.4-.2v-25.1l7.4.2V76.3z" fill="url(#未命名漸層_20)"/><path d="M566 114.3V63.9h-22.4v52.8a172 172 0 0 1 22.4-2.4z" fill="url(#未命名漸層_21)"/><path fill="url(#未命名漸層_22)" d="M647 75.4v4.7h9V63.9h-9v11.5z"/><path fill="url(#未命名漸層_23)" d="M537.7 549.3h24.1v43.34h-24.1z"/><path fill="url(#未命名漸層_24)" d="M462.3 500.3h12.1v29.29h-12.1z"/><path fill="url(#未命名漸層_25)" d="M677 505.6h12.1v14.64H677z"/><path d="M574.8 223.5v-36.3h-22.4v-34.7a170.7 170.7 0 0 0-30.6 8.4v-33.4h-14.9v39.8q-5.4 2.6-10.7 5.7a172.7 172.7 0 0 0-37.5 29.4l1.9 2.2-5.3 4.4-1.3-1.5-3.5 4c-2.5 3-4.9 6.1-7.2 9.3A161.4 161.4 0 0 1 480.4 324a161.1 161.1 0 0 1-35.7 101.4c1.9 2.5 3.7 4.9 5.7 7.2l5.2 5.9A178.1 178.1 0 0 0 497.2 324h6.9a185.1 185.1 0 0 1-43.6 119.5h-.1a172.4 172.4 0 0 0 35.7 27.5 170.7 170.7 0 0 0 15.4 7.9v49.6H530v-65.6h-14.7V430h18.5v57.2a171.2 171.2 0 0 0 41 6.8v-30.8h14.9V425h18.5v67.2l4-.6q7.6-1.3 14.9-3.3v-68h18.5v41.3h-5v106.7H659V476c3.2-1.6 6.3-3.2 9.3-5a171.8 171.8 0 0 0 63.4-234.4h-35.3v-7.7H727q-3.3-5.2-7-10.1h-30.9v-22.7h10.5a171.3 171.3 0 0 0-109.8-46v73.4zm133.4 31.6v12.8h-75v-12.8zM530.7 324a211.3 211.3 0 0 1-12.8 72.7q-1.8 5.1-3.9 10a211.4 211.4 0 0 1-33 53.9l-8-6.6a202.4 202.4 0 0 0 35.2-199.1l9.8-3.6a211.3 211.3 0 0 1 12.7 72.7z" fill="url(#未命名漸層_26)"/><path fill="url(#未命名漸層_27)" d="M781.8 236.6h34.9v-7.7h-70.1v7.7h35.2z"/><path d="M751 211.4c2 2.4 4 4.9 5.9 7.4h6.9v-22.7h-27.4a172.6 172.6 0 0 1 14.6 15.3z" fill="url(#未命名漸層_28)"/><path d="M737 218.8c-1.9-2.5-3.8-5-5.9-7.4a172.6 172.6 0 0 0-14.6-15.3h-10.4v22.7z" fill="url(#未命名漸層_29)"/><path fill="url(#未命名漸層_30)" d="M339.7 272.7h30.7v7.99h-30.7z"/><path fill="url(#未命名漸層_31)" d="M355 373.6h5.5v5.48H355z"/><path class="cls-23" d="M451.8 604.9h14.5v14.55h-14.5zM280.5 80.1h10.2v10.21h-10.2zm277.6 457.1h24.1v24.12h-24.1zm24.2-24.3h88.4v7.32h-88.4zM518.8 99.3h36v12.12h-36zm-49.3 131.6h61.2v20.38h-61.2zm255.2 97.4h72.2v14.66h-72.2zm53.2 33.4h53v5.82h-53zM696 285.9h63.6v5.53H696zm-82.1 112.8h25.5v5.41h-25.5z"/><path class="cls-24" d="M55 311.8h44.6v6.48H55z"/><path class="cls-23" d="M24.8 319.7h44.6v15.44H24.8z"/><path class="cls-24" d="M173.2 280.7h45.3v10.77h-45.3z"/><path class="cls-24" d="M199.6 274h33.3v11.23h-33.3zm-62.7 180.6h28.6v8.27h-28.6z"/><path class="cls-23" d="M56.1 392.4h98.8v9.75H56.1zm95.8-156.1h4.1v4.05h-4.1z"/></g></svg>