<svg data-name="圖層 1" xmlns="http://www.w3.org/2000/svg" xmlns:xlink="http://www.w3.org/1999/xlink" viewBox="0 0 348 341"><defs><radialGradient id="a" data-name="未命名漸層 3" cx="1336.62" cy="-453.37" r="90.65" gradientTransform="matrix(1 0 0 -1 0 317)" gradientUnits="userSpaceOnUse"><stop offset="0" stop-color="#21abda"/><stop offset="1" stop-color="#e52676"/></radialGradient><radialGradient id="b" data-name="未命名漸層 4" cx="1418.09" cy="-627.73" r="6.38" xlink:href="#a"/><radialGradient id="c" data-name="未命名漸層 5" cx="1460.14" cy="-569.74" r="15.91" xlink:href="#a"/><radialGradient id="d" data-name="未命名漸層 6" cx="1249.36" cy="-591.52" r="36.73" xlink:href="#a"/><radialGradient id="e" data-name="未命名漸層 7" cx="1224.24" cy="-529.51" r="85.81" xlink:href="#a"/><radialGradient id="f" data-name="未命名漸層 8" cx="1419.42" cy="-511.18" r="108.9" xlink:href="#a"/><radialGradient id="g" data-name="未命名漸層 13" cx="1344.15" cy="-508.74" r="153.3" xlink:href="#a"/><radialGradient id="h" data-name="未命名漸層 14" cx="1387.47" cy="-511.93" r="103.27" xlink:href="#a"/><radialGradient id="i" data-name="未命名漸層 15" cx="1242.27" cy="-531.63" r="77.25" xlink:href="#a"/><linearGradient id="j" data-name="未命名漸層 16" x1="1378.51" y1="-543.02" x2="1379.04" y2="-671.51" gradientTransform="matrix(0 -1 -1 0 -345.26 1550.15)" gradientUnits="userSpaceOnUse"><stop offset="0" stop-color="#21abda"/><stop offset=".11" stop-color="#24a9d8"/><stop offset=".19" stop-color="#2ea2d3"/><stop offset=".27" stop-color="#4096ca"/><stop offset=".35" stop-color="#5886be"/><stop offset=".42" stop-color="#7771ae"/><stop offset=".49" stop-color="#9d579b"/><stop offset=".56" stop-color="#ca3884"/><stop offset=".6" stop-color="#e52676"/></linearGradient><linearGradient id="k" data-name="未命名漸層 17" x1="1409.05" y1="-541.72" x2="1419.64" y2="-808.7" gradientTransform="matrix(0 -1 -1 0 -345.26 1550.15)" xlink:href="#a"/><linearGradient id="l" data-name="未命名漸層 18" x1="1319.71" y1="-545.26" x2="1330.29" y2="-812.24" gradientTransform="matrix(0 -1 -1 0 -345.26 1550.15)" xlink:href="#a"/><linearGradient id="m" data-name="未命名漸層 19" x1="1375.26" y1="-543.06" x2="1385.85" y2="-810.04" gradientTransform="matrix(0 -1 -1 0 -345.26 1550.15)" xlink:href="#a"/><linearGradient id="n" data-name="未命名漸層 20" x1="1337.77" y1="-544.54" x2="1348.35" y2="-811.53" gradientTransform="matrix(0 -1 -1 0 -345.26 1550.15)" xlink:href="#a"/></defs><path d="M110.9 281.5a125.4 125.4 0 0 0 41.2 15l.4-2.3a123 123 0 0 1-40.5-14.8 124.8 124.8 0 0 1-54.6-65A123.5 123.5 0 0 1 50 172a123.6 123.6 0 0 1 29.1-79.7 125 125 0 0 1 33-27.7l-1.1-2a127.3 127.3 0 0 0-55.6 66.2 125.8 125.8 0 0 0-7.7 43.2 125.8 125.8 0 0 0 29.6 81.2 127.3 127.3 0 0 0 33.6 28.3z" fill="url(#a)"/><path d="M270.9 90.8l-1.8 1.5a124.4 124.4 0 0 1 9.6 13.1l1.1-2.6a129.3 129.3 0 0 0-8.9-12z" fill="url(#b)"/><path d="M195.7 49.8a123 123 0 0 1 40.5 14.8l1.2-2a125.4 125.4 0 0 0-41.2-15z" fill="url(#c)"/><path d="M269.1 251.7a125 125 0 0 1-33 27.7 123 123 0 0 1-40.5 14.8l.4 2.3a125.4 125.4 0 0 0 41.3-15 127.4 127.4 0 0 0 43.6-41.8l-1.1-2.6a123.8 123.8 0 0 1-10.7 14.6z" fill="url(#d)"/><path d="M287.6 267.2a149.6 149.6 0 0 1-39.4 33.1 148 148 0 0 1-187.6-33.1l-1.8 1.5a151.7 151.7 0 0 0 40 33.6 150.3 150.3 0 0 0 150.6 0 151.6 151.6 0 0 0 40-33.6l4.3-5.4-1.3-2.1z" fill="url(#e)"/><path d="M289.4 75.3a151.6 151.6 0 0 0-40-33.6A150.5 150.5 0 0 0 23.6 172h2.3a147.5 147.5 0 0 1 34.7-95.2A149.4 149.4 0 0 1 100 43.6 147.2 147.2 0 0 1 148.4 26a149.1 149.1 0 0 1 51.5 0 147.2 147.2 0 0 1 48.4 17.6 149.6 149.6 0 0 1 39.4 33.1L291 81l1.3-2.1z" fill="url(#f)"/><path d="M298.4 67.7A162.1 162.1 0 0 0 93 31.5a163.4 163.4 0 0 0-71.4 85 161.8 161.8 0 0 0-9.8 55.5 161.5 161.5 0 0 0 38 104.3 162.5 162.5 0 0 0 152.5 55.6l-.2-1.1a162.4 162.4 0 0 1-56 0 160.3 160.3 0 0 1-52.6-19.2 162.1 162.1 0 0 1-70.9-84.4 160.3 160.3 0 0 1-9.7-55.2A160.5 160.5 0 0 1 50.7 68.4a162.3 162.3 0 0 1 42.8-36 160.3 160.3 0 0 1 52.6-19.2 162.4 162.4 0 0 1 56 0 160.3 160.3 0 0 1 52.6 19.2 162.5 162.5 0 0 1 42.8 36l1 1.2.7-1z" fill="url(#g)"/><path d="M274.1 88.1l.9-.7A131.7 131.7 0 0 0 50.4 127a131.2 131.2 0 0 0-7.9 45 131.2 131.2 0 0 0 7.9 45l1.1-.4a129.9 129.9 0 0 1-7.9-44.6 130 130 0 0 1 30.5-83.9 130.4 130.4 0 0 1 199.9 0z" fill="url(#h)"/><path d="M274.1 255.9a131.7 131.7 0 0 1-34.7 29.1 130.4 130.4 0 0 1-165.3-29.2l-.9.7a132.8 132.8 0 0 0 35 29.4 130.8 130.8 0 0 0 43 15.7 132.4 132.4 0 0 0 45.7 0 131.7 131.7 0 0 0 86.5-56.5l-.6-1.2a132.4 132.4 0 0 1-8.7 12z" fill="url(#i)"/><path d="M336.4 172a161.4 161.4 0 0 0-37.2-103.3l-.7 1A160.1 160.1 0 0 1 335.3 172 160 160 0 0 1 300 272.5l.7 1A161.1 161.1 0 0 0 336.4 172z" fill="#e73632"/><path d="M276.5 172a102.2 102.2 0 0 0-6.2-35l-.7-1.8c-.9 4.2-39.7 7.5-40.3 11.9s33 .8 37.1 12.1c1.2 3.4-29.9 5.6-3 13.8 6.8 2-40.4 4.9-43.5 8.8s44.8.8 29.3 11.6c-3.5 2.4 20 10 21 14.1 0-.1.1-.2.1-.4a102.2 102.2 0 0 0 6.2-35.1z" fill="url(#j)"/><path d="M298.2 172h2.3a125.5 125.5 0 0 0-20.7-69.2l-1.1 2.6a123.5 123.5 0 0 1 19.5 66.6z" fill="url(#k)"/><path d="M290.7 214.5a123.5 123.5 0 0 1-11 22.6l1.1 2.6a126 126 0 0 0 12-24.4z" fill="url(#l)"/><path d="M324.6 172a149.5 149.5 0 0 0-32.4-93.1L291 81a147.4 147.4 0 0 1 31.4 91 147.3 147.3 0 0 1-30 89.3l1.3 2.1a149.6 149.6 0 0 0 31-91.4z" fill="url(#m)"/><path d="M305.8 172h-1.2a129.2 129.2 0 0 1-21.8 72l.6 1.2a130.5 130.5 0 0 0 22.4-73.2z" fill="url(#n)"/></svg>