<svg xmlns="http://www.w3.org/2000/svg" viewBox="0 0 686.46 763.74"><style>.st230{fill:#f4f4f4}</style><g id="圖層_3"><path d="M120.81 149.17h7.89v46.32h-7.89zm.01 101h7.89v46.32h-7.89z" fill="none"/><linearGradient id="SVGID_2_" gradientUnits="userSpaceOnUse" x1="265.962" y1="280.358" x2="514.654" y2="280.358"><stop offset="0" stop-color="#21acda"/><stop offset="1" stop-color="#e62676"/></linearGradient><path d="M366.2 349.89h73.78v20.63H272.03v-20.63h73.78v-46.11h-48.06v-20.39h48.06v-31.55H298l-10.19 27.67h-21.84l30.58-84.22h21.6l-13.11 35.92h40.77v-41.02h20.39v41.02h148.46v20.63H366.2v31.55h50.48v20.39H366.2v46.11z" fill="url(#SVGID_2_)"/><linearGradient id="SVGID_3_" gradientUnits="userSpaceOnUse" x1="53.14" y1="352.298" x2="101.743" y2="352.298"><stop offset="0" stop-color="#21acda"/><stop offset="1" stop-color="#e62676"/></linearGradient><path fill="url(#SVGID_3_)" d="M53.14 369.09h23.82l24.78-33.59H77.92z"/><linearGradient id="SVGID_4_" gradientUnits="userSpaceOnUse" x1="162.497" y1="352.298" x2="213.483" y2="352.298"><stop offset="0" stop-color="#21acda"/><stop offset="1" stop-color="#e62676"/></linearGradient><path fill="url(#SVGID_4_)" d="M162.5 335.5l26.44 33.59h24.54L186.8 335.5z"/><linearGradient id="SVGID_5_" gradientUnits="userSpaceOnUse" x1="42.418" y1="159.425" x2="221.584" y2="159.425"><stop offset="0" stop-color="#21acda"/><stop offset="1" stop-color="#e62676"/></linearGradient><path d="M176.32 296.19v-49.32h34.55v-18.82h-34.55v-30.74H157.5v30.74h-50.99V33.63c4.12-3.03 6.81-7.89 6.81-13.4 0-9.18-7.45-16.63-16.63-16.63s-16.63 7.45-16.63 16.63c0 5.86 3.04 11.01 7.62 13.97v193.85H53.14v18.82h34.55v49.32H42.42v19.06h179.17v-19.06h-45.27zm-18.83 0H106.5v-49.32h50.99v49.32z" fill="url(#SVGID_5_)"/><linearGradient id="SVGID_6_" gradientUnits="userSpaceOnUse" x1="257.956" y1="583.909" x2="451.178" y2="583.909"><stop offset="0" stop-color="#21acda"/><stop offset="1" stop-color="#e62676"/></linearGradient><path d="M290.3 650.4v-90.72h25.65v35.98h17.56v-2.62h117.67v-15.25h-30.26l7.15-14.3h-16.92l-6.91 14.3h-21.68l-7.39-14.3h-16.92l7.39 14.3H333.5v-72.67h113.38v-15.01H348V480.1h91.98v-59.56h-26.92v-12.87h-13.34v12.87h-14.06v-12.87h-13.82v12.87h-26.68v41.22h-5.7v-50.99h-65.89v50.99h-15.61v33.36h14.78v234.34c-4.66 2.95-7.77 8.13-7.77 14.06 0 9.18 7.45 16.63 16.63 16.63s16.63-7.45 16.63-16.63c0-5.99-3.18-11.22-7.92-14.15V650.4zm122.76-217.23h14.3v9.77h-14.3v-9.77zm0 23.83h14.3v10.24h-14.3V457zm-27.4-23.83h14.06v9.77h-14.06v-9.77zm0 23.83h14.06v10.24h-14.06V457zm-27.88-23.83h14.06v9.77h-14.06v-9.77zm0 23.83h14.06v10.24h-14.06V457zm-41.84 87.67H290.3v-14.3h25.65v14.3zm0-29.3H290.3v-12.15h25.65v12.15zm-26.76-91.25h27.88v11.2h-21.19v26.45h-6.69v-37.65zm27.88 23.82v13.82h-6.69v-13.82h6.69zm-42.38 40.27v-12.15h56.87v12.15h-56.87z" fill="url(#SVGID_6_)"/><linearGradient id="SVGID_7_" gradientUnits="userSpaceOnUse" x1="350.875" y1="533.878" x2="434.263" y2="533.878"><stop offset="0" stop-color="#21acda"/><stop offset="1" stop-color="#e62676"/></linearGradient><path fill="url(#SVGID_7_)" d="M350.87 514.65h83.39v38.45h-83.39z"/><linearGradient id="SVGID_8_" gradientUnits="userSpaceOnUse" x1="44.827" y1="440.661" x2="79.516" y2="440.661"><stop offset="0" stop-color="#21acda"/><stop offset="1" stop-color="#e62676"/></linearGradient><path d="M44.83 457.88l6.23-7.59c3.27 2.78 7.53 4.69 11.17 4.69 4.07 0 5.99-1.54 5.99-4.01 0-2.65-2.53-3.52-6.48-5.19l-5.86-2.47c-4.81-1.91-9.32-5.93-9.32-12.59 0-7.72 6.91-13.89 16.67-13.89 5.31 0 10.93 2.04 14.94 6.05l-5.49 6.91c-3.02-2.28-5.86-3.52-9.44-3.52-3.4 0-5.49 1.36-5.49 3.83 0 2.53 2.9 3.52 6.98 5.12l5.74 2.28c5.68 2.28 9.07 6.11 9.07 12.59 0 7.65-6.42 14.38-17.53 14.38-6.01.02-12.43-2.21-17.18-6.59z" fill="url(#SVGID_8_)"/><linearGradient id="SVGID_9_" gradientUnits="userSpaceOnUse" x1="80.569" y1="440.661" x2="119.271" y2="440.661"><stop offset="0" stop-color="#21acda"/><stop offset="1" stop-color="#e62676"/></linearGradient><path d="M94.4 447.39L80.57 417.7H92.3l3.83 10.18c1.24 3.46 2.41 6.67 3.7 10.25h.25c1.3-3.58 2.53-6.79 3.83-10.25l3.83-10.18h11.54l-13.89 29.69v16.23H94.4v-16.23z" fill="url(#SVGID_9_)"/><linearGradient id="SVGID_10_" gradientUnits="userSpaceOnUse" x1="124.584" y1="440.661" x2="168.163" y2="440.661"><stop offset="0" stop-color="#21acda"/><stop offset="1" stop-color="#e62676"/></linearGradient><path d="M124.58 417.7h11.91l7.28 19.81c.93 2.65 1.66 5.56 2.53 8.39h.31c.93-2.84 1.67-5.74 2.53-8.39l7.04-19.81h11.98v45.92H158.1v-15.74c0-4.57.86-11.42 1.42-15.93h-.25l-3.83 10.99-6.17 16.79h-6.05l-6.23-16.79-3.7-10.99h-.25c.55 4.51 1.42 11.36 1.42 15.93v15.74h-9.88V417.7z" fill="url(#SVGID_10_)"/><linearGradient id="SVGID_11_" gradientUnits="userSpaceOnUse" x1="177.119" y1="445.753" x2="194.588" y2="445.753"><stop offset="0" stop-color="#21acda"/><stop offset="1" stop-color="#e62676"/></linearGradient><path d="M177.12 441.9h17.47v7.72h-17.47v-7.72z" fill="url(#SVGID_11_)"/><linearGradient id="SVGID_12_" gradientUnits="userSpaceOnUse" x1="47.728" y1="514.74" x2="83.036" y2="514.74"><stop offset="0" stop-color="#21acda"/><stop offset="1" stop-color="#e62676"/></linearGradient><path d="M47.73 491.78h16.05c9.51 0 17.1 2.53 17.1 11.36 0 4.07-2.28 8.52-5.99 9.94v.25c4.63 1.23 8.15 4.69 8.15 10.8 0 9.38-7.96 13.58-17.96 13.58H47.73v-45.93zm15.61 18.21c4.69 0 6.79-2.04 6.79-5.18 0-3.27-2.16-4.63-6.79-4.63h-4.57v9.81h4.57zm.93 19.26c5.31 0 8.02-1.91 8.02-5.86 0-3.77-2.65-5.25-8.02-5.25h-5.49v11.11h5.49z" fill="url(#SVGID_12_)"/><linearGradient id="SVGID_13_" gradientUnits="userSpaceOnUse" x1="91.249" y1="514.74" x2="102.297" y2="514.74"><stop offset="0" stop-color="#21acda"/><stop offset="1" stop-color="#e62676"/></linearGradient><path d="M91.25 491.78h11.05v45.92H91.25v-45.92z" fill="url(#SVGID_13_)"/><linearGradient id="SVGID_14_" gradientUnits="userSpaceOnUse" x1="111.372" y1="514.74" x2="153.47" y2="514.74"><stop offset="0" stop-color="#21acda"/><stop offset="1" stop-color="#e62676"/></linearGradient><path d="M111.37 514.49c0-15.06 8.52-23.58 21.05-23.58s21.05 8.58 21.05 23.58c0 15.06-8.52 24.07-21.05 24.07s-21.05-9.01-21.05-24.07zm30.87 0c0-8.89-3.77-14.14-9.82-14.14-6.05 0-9.75 5.25-9.75 14.14 0 8.95 3.7 14.57 9.75 14.57s9.82-5.62 9.82-14.57z" fill="url(#SVGID_14_)"/><linearGradient id="SVGID_15_" gradientUnits="userSpaceOnUse" x1="157.055" y1="514.74" x2="192.978" y2="514.74"><stop offset="0" stop-color="#21acda"/><stop offset="1" stop-color="#e62676"/></linearGradient><path d="M169.46 500.91h-12.41v-9.14h35.92v9.14H180.5v36.79h-11.05v-36.79z" fill="url(#SVGID_15_)"/><linearGradient id="SVGID_16_" gradientUnits="userSpaceOnUse" x1="200.7" y1="514.74" x2="230.513" y2="514.74"><stop offset="0" stop-color="#21acda"/><stop offset="1" stop-color="#e62676"/></linearGradient><path d="M200.7 491.78h29.13v9.14h-18.09v8.52h15.37v9.26h-15.37v9.75h18.76v9.26h-29.8v-45.93z" fill="url(#SVGID_16_)"/><path class="st230" d="M375.09 349.89h73.78v20.63H280.92v-20.63h73.78v-46.11h-48.06v-20.39h48.06v-31.55h-47.81l-10.19 27.67h-21.84l30.58-84.22h21.6l-13.11 35.92h40.77v-41.02h20.39v41.02h148.46v20.63H375.09v31.55h50.48v20.39h-50.48v46.11zm-313.06 19.2h23.83l24.78-33.59H86.81zm109.36-33.59l26.45 33.59h24.54l-26.69-33.59zm13.82-39.31v-49.32h34.55v-18.82h-34.55v-30.74h-18.82v30.74H115.4V33.63c4.12-3.03 6.81-7.89 6.81-13.4 0-9.18-7.45-16.63-16.63-16.63s-16.63 7.45-16.63 16.63c0 5.86 3.04 11.01 7.62 13.97v193.85H62.03v18.82h34.55v49.32H51.31v19.06h179.17v-19.06h-45.27zm-18.82 0H115.4v-49.32h50.99v49.32zm132.8 354.21v-90.72h25.65v35.98h17.56v-2.62h117.67v-15.25h-30.26l7.15-14.3h-16.92l-6.91 14.3h-21.68l-7.39-14.3h-16.92l7.39 14.3H342.4v-72.67h113.38v-15.01H356.9V480.1h91.98v-59.56h-26.92v-12.87h-13.34v12.87h-14.06v-12.87h-13.82v12.87h-26.68v41.22h-5.7v-50.99h-65.89v50.99h-15.61v33.36h14.78v234.34c-4.66 2.95-7.77 8.13-7.77 14.06 0 9.18 7.45 16.63 16.63 16.63s16.63-7.45 16.63-16.63c0-5.99-3.18-11.22-7.92-14.15V650.4zm122.76-217.23h14.3v9.77h-14.3v-9.77zm0 23.83h14.3v10.24h-14.3V457zm-27.4-23.83h14.06v9.77h-14.06v-9.77zm0 23.83h14.06v10.24h-14.06V457zm-27.87-23.83h14.06v9.77h-14.06v-9.77zm0 23.83h14.06v10.24h-14.06V457zm-41.84 87.67h-25.65v-14.3h25.65v14.3zm0-29.3h-25.65v-12.15h25.65v12.15zm-26.76-91.25h27.88v11.2h-21.19v26.45h-6.69v-37.65zm27.88 23.82v13.82h-6.69v-13.82h6.69zm-42.38 40.27v-12.15h56.87v12.15h-56.87z"/><path class="st230" d="M359.77 514.65h83.39v38.45h-83.39zM53.72 457.88l6.23-7.59c3.27 2.78 7.53 4.69 11.17 4.69 4.07 0 5.99-1.54 5.99-4.01 0-2.65-2.53-3.52-6.48-5.19l-5.86-2.47c-4.81-1.91-9.32-5.93-9.32-12.59 0-7.72 6.91-13.89 16.67-13.89 5.31 0 10.93 2.04 14.94 6.05l-5.49 6.91c-3.02-2.28-5.86-3.52-9.44-3.52-3.4 0-5.49 1.36-5.49 3.83 0 2.53 2.9 3.52 6.98 5.12l5.74 2.28c5.68 2.28 9.07 6.11 9.07 12.59 0 7.65-6.42 14.38-17.53 14.38-6.01.02-12.43-2.21-17.18-6.59zm49.57-10.49L89.46 417.7h11.73l3.83 10.18c1.24 3.46 2.41 6.67 3.7 10.25h.25c1.3-3.58 2.53-6.79 3.83-10.25l3.83-10.18h11.54l-13.89 29.69v16.23h-10.99v-16.23zm30.19-29.69h11.91l7.28 19.81c.93 2.65 1.66 5.56 2.53 8.39h.31c.93-2.84 1.67-5.74 2.53-8.39l7.04-19.81h11.98v45.92H167v-15.74c0-4.57.86-11.42 1.42-15.93h-.25l-3.83 10.99-6.17 16.79h-6.05l-6.23-16.79-3.7-10.99h-.25c.55 4.51 1.42 11.36 1.42 15.93v15.74h-9.88V417.7zm52.53 24.2h17.47v7.72h-17.47v-7.72zM56.62 491.78h16.05c9.51 0 17.1 2.53 17.1 11.36 0 4.07-2.28 8.52-5.99 9.94v.25c4.63 1.23 8.15 4.69 8.15 10.8 0 9.38-7.96 13.58-17.96 13.58H56.62v-45.93zm15.62 18.21c4.69 0 6.79-2.04 6.79-5.18 0-3.27-2.16-4.63-6.79-4.63h-4.57v9.81h4.57zm.93 19.26c5.31 0 8.02-1.91 8.02-5.86 0-3.77-2.65-5.25-8.02-5.25h-5.49v11.11h5.49zm26.97-37.47h11.05v45.92h-11.05v-45.92zm20.13 22.71c0-15.06 8.52-23.58 21.05-23.58 12.53 0 21.05 8.58 21.05 23.58 0 15.06-8.52 24.07-21.05 24.07-12.53.01-21.05-9.01-21.05-24.07zm30.86 0c0-8.89-3.77-14.14-9.82-14.14-6.05 0-9.75 5.25-9.75 14.14 0 8.95 3.7 14.57 9.75 14.57 6.06 0 9.82-5.62 9.82-14.57zm27.23-13.58h-12.41v-9.14h35.92v9.14H189.4v36.79h-11.05v-36.79zm31.24-9.13h29.13v9.14h-18.09v8.52h15.37v9.26h-15.37v9.75h18.76v9.26h-29.8v-45.93z"/><path d="M158.5 109.38h4.89V93.84h-4.01v-2.22c2.09-.39 3.58-.91 4.86-1.7h2.64v19.47h4.37v2.88H158.5v-2.89zm16.14-8.38c0-7.74 2.82-11.51 7.23-11.51 4.37 0 7.23 3.8 7.23 11.51 0 7.77-2.85 11.66-7.23 11.66-4.41 0-7.23-3.88-7.23-11.66zm11.11 0c0-6.41-1.61-8.74-3.88-8.74-2.28 0-3.89 2.34-3.89 8.74 0 6.47 1.61 8.9 3.89 8.9 2.27 0 3.88-2.43 3.88-8.9zm7.97 5.8v-8.44h-2.43v-2.61l2.58-.18.39-4.62h2.95v4.62h4.34v2.8h-4.34v8.47c0 2.01.7 3.04 2.43 3.04.58 0 1.31-.18 1.79-.39l.64 2.58c-.94.31-2.07.61-3.28.61-3.77-.02-5.07-2.35-5.07-5.88zm11.48-18.74h3.46v6.41l-.12 3.31c1.46-1.4 3.13-2.64 5.41-2.64 3.55 0 5.13 2.37 5.13 6.62v10.51h-3.49v-10.08c0-2.88-.85-4.04-2.82-4.04-1.55 0-2.61.79-4.1 2.28v11.84h-3.46V88.06zm23.95 22.29l1.64-2.25c1.49 1.18 2.95 1.91 4.74 1.91 2 0 2.95-.97 2.95-2.25 0-1.52-1.88-2.19-3.71-2.88-2.22-.85-4.77-2.04-4.77-4.86 0-2.8 2.25-4.89 5.92-4.89 2.25 0 4.07.91 5.44 1.97l-1.64 2.16c-1.15-.85-2.34-1.46-3.73-1.46-1.82 0-2.67.91-2.67 2.07 0 1.43 1.73 1.98 3.55 2.64 2.34.88 4.92 1.91 4.92 5.07 0 2.79-2.22 5.07-6.35 5.07-2.32.01-4.69-.96-6.29-2.3zm16.22-3.55v-8.44h-2.43v-2.61l2.58-.18.39-4.62h2.95v4.62h4.34v2.8h-4.34v8.47c0 2.01.7 3.04 2.43 3.04.58 0 1.31-.18 1.79-.39l.64 2.58c-.94.31-2.07.61-3.28.61-3.76-.02-5.07-2.35-5.07-5.88zm11.27-.73v-10.5h3.49v10.08c0 2.88.82 4.01 2.79 4.01 1.55 0 2.61-.73 4.01-2.49v-11.6h3.49v16.7h-2.85l-.27-2.52h-.09c-1.52 1.76-3.16 2.91-5.47 2.91-3.55 0-5.1-2.33-5.1-6.59zm17.93-2.12c0-5.44 3.43-8.81 7.17-8.81 1.91 0 3.13.73 4.5 1.88l-.15-2.76v-6.2h3.49v24.2h-2.85l-.3-1.88h-.09c-1.24 1.28-2.98 2.28-4.86 2.28-4.2 0-6.91-3.19-6.91-8.71zm11.51 3.79v-8.17c-1.25-1.12-2.43-1.52-3.68-1.52-2.34 0-4.22 2.22-4.22 5.83 0 3.8 1.49 5.89 4.1 5.89 1.4.01 2.59-.63 3.8-2.03zm7.57-3.79c0-5.44 3.71-8.81 7.62-8.81 4.43 0 6.8 3.19 6.8 7.93 0 .67-.06 1.37-.15 1.76h-10.84c.27 3.19 2.28 5.1 5.16 5.1 1.49 0 2.76-.46 3.98-1.25l1.22 2.22c-1.55 1.03-3.46 1.76-5.65 1.76-4.52 0-8.14-3.22-8.14-8.71zm11.42-1.52c0-2.88-1.31-4.55-3.73-4.55-2.1 0-3.95 1.61-4.28 4.55h8.01zm6.93-6.86h2.85l.28 2.31h.09c1.55-1.49 3.25-2.73 5.53-2.73 3.55 0 5.13 2.37 5.13 6.62v10.51h-3.49V102.2c0-2.88-.85-4.04-2.82-4.04-1.55 0-2.61.79-4.1 2.28v11.84H312V95.57zm19.51 11.23v-8.44h-2.43v-2.61l2.58-.18.39-4.62H335v4.62h4.34v2.8H335v8.47c0 2.01.7 3.04 2.43 3.04.58 0 1.31-.18 1.79-.39l.64 2.58c-.94.31-2.07.61-3.28.61-3.76-.02-5.07-2.35-5.07-5.88zm9.27-4.4h8.02v2.58h-8.02v-2.58zm10.88 1.55c0-5.59 3.74-8.81 7.87-8.81s7.87 3.22 7.87 8.81c0 5.53-3.74 8.71-7.87 8.71s-7.87-3.19-7.87-8.71zm12.15 0c0-3.55-1.64-5.92-4.28-5.92-2.61 0-4.25 2.37-4.25 5.92 0 3.52 1.64 5.86 4.25 5.86 2.63 0 4.28-2.34 4.28-5.86zm7.69-8.38h2.85l.28 3.01h.09c1.18-2.15 2.95-3.43 4.74-3.43.82 0 1.36.12 1.88.36l-.64 3.04c-.58-.18-1-.27-1.67-.27-1.37 0-3.01.94-4.07 3.58v10.42h-3.46V95.57zm10.88 19.8c0-1.4.88-2.7 2.43-3.64v-.15c-.85-.52-1.52-1.4-1.52-2.77 0-1.31.94-2.43 1.85-3.1v-.12c-1.12-.88-2.19-2.46-2.19-4.43 0-3.8 3.01-6.01 6.47-6.01.94 0 1.79.18 2.43.42h5.92v2.61h-3.19c.64.67 1.09 1.79 1.09 3.07 0 3.64-2.77 5.74-6.26 5.74-.76 0-1.61-.18-2.34-.52-.55.49-.91.97-.91 1.76 0 1 .67 1.64 2.8 1.64h3.07c3.95 0 6.01 1.22 6.01 4.07 0 3.22-3.4 5.83-8.75 5.83-4 0-6.91-1.49-6.91-4.4zm12.3-.88c0-1.4-1.09-1.82-3.13-1.82h-2.52c-.79 0-1.55-.09-2.25-.24-1 .73-1.43 1.58-1.43 2.43 0 1.64 1.7 2.61 4.46 2.61 2.92-.01 4.87-1.44 4.87-2.98zm-2.1-13.34c0-2.25-1.4-3.55-3.16-3.55-1.76 0-3.16 1.28-3.16 3.55 0 2.22 1.43 3.58 3.16 3.58 1.73.01 3.16-1.36 3.16-3.58zm7.03 6.69c0-3.58 3.04-5.44 9.99-6.2-.03-1.94-.73-3.64-3.19-3.64-1.76 0-3.4.79-4.83 1.7l-1.31-2.37c1.73-1.09 4.07-2.19 6.74-2.19 4.16 0 6.07 2.64 6.07 7.07v10.05h-2.85l-.3-1.91h-.09c-1.52 1.31-3.31 2.31-5.31 2.31-2.89 0-4.92-1.88-4.92-4.82zm9.99.12v-4.1c-4.95.61-6.62 1.85-6.62 3.74 0 1.64 1.12 2.31 2.61 2.31 1.45-.01 2.64-.71 4.01-1.95zm8.45-12.39h2.85l.28 2.31h.09c1.55-1.49 3.25-2.73 5.53-2.73 3.55 0 5.13 2.37 5.13 6.62v10.51h-3.49V102.2c0-2.88-.85-4.04-2.82-4.04-1.55 0-2.61.79-4.1 2.28v11.84h-3.46V95.57zm18.47-5.2c0-1.25.94-2.07 2.22-2.07 1.28 0 2.25.82 2.25 2.07 0 1.21-.97 2.07-2.25 2.07s-2.22-.85-2.22-2.07zm.49 5.2h3.46v16.7h-3.46v-16.7zm7.2 14.81l8.23-12.02h-7.32v-2.8h11.72v1.85l-8.23 12.06h8.5v2.8h-12.9v-1.89zm14.89-6.43c0-5.44 3.71-8.81 7.62-8.81 4.43 0 6.8 3.19 6.8 7.93 0 .67-.06 1.37-.15 1.76h-10.84c.27 3.19 2.28 5.1 5.16 5.1 1.49 0 2.76-.46 3.98-1.25l1.22 2.22c-1.55 1.03-3.46 1.76-5.65 1.76-4.52 0-8.14-3.22-8.14-8.71zm11.42-1.52c0-2.88-1.31-4.55-3.73-4.55-2.1 0-3.95 1.61-4.28 4.55h8.01zm5.81 1.52c0-5.44 3.43-8.81 7.17-8.81 1.91 0 3.13.73 4.5 1.88l-.15-2.76v-6.2h3.49v24.2h-2.86l-.3-1.88h-.09c-1.24 1.28-2.98 2.28-4.86 2.28-4.2 0-6.9-3.19-6.9-8.71zm11.51 3.79v-8.17c-1.25-1.12-2.43-1.52-3.68-1.52-2.34 0-4.22 2.22-4.22 5.83 0 3.8 1.49 5.89 4.1 5.89 1.4.01 2.58-.63 3.8-2.03zm13.77-12.17h3.53l2.22 9.05c.33 1.61.61 3.16.91 4.74h.12c.36-1.58.7-3.16 1.09-4.74l2.34-9.05h3.25l2.4 9.05c.39 1.61.73 3.16 1.12 4.74h.12c.34-1.58.61-3.13.97-4.74l2.15-9.05h3.28l-4.31 16.7h-4.19l-2.12-8.26c-.39-1.58-.7-3.1-1.06-4.83h-.15c-.33 1.73-.64 3.28-1.06 4.86l-2.04 8.23h-4.04l-4.53-16.7zm25.61 8.38c0-5.59 3.74-8.81 7.87-8.81s7.87 3.22 7.87 8.81c0 5.53-3.74 8.71-7.87 8.71s-7.87-3.19-7.87-8.71zm12.15 0c0-3.55-1.64-5.92-4.28-5.92-2.61 0-4.25 2.37-4.25 5.92 0 3.52 1.64 5.86 4.25 5.86 2.64 0 4.28-2.34 4.28-5.86zm7.69-8.38h2.85l.28 3.01h.09c1.18-2.15 2.95-3.43 4.74-3.43.82 0 1.36.12 1.88.36l-.64 3.04c-.58-.18-1-.27-1.67-.27-1.37 0-3.01.94-4.07 3.58v10.42h-3.46V95.57zm12.43-7.51h3.4v15.61h.09l6.56-8.11h3.86l-5.68 6.77 6.32 9.93h-3.8l-4.53-7.56-2.82 3.25v4.31h-3.4v-24.2zm15.71 22.29l1.64-2.25c1.49 1.18 2.95 1.91 4.74 1.91 2 0 2.95-.97 2.95-2.25 0-1.52-1.88-2.19-3.71-2.88-2.22-.85-4.77-2.04-4.77-4.86 0-2.8 2.25-4.89 5.92-4.89 2.25 0 4.07.91 5.44 1.97l-1.64 2.16c-1.15-.85-2.34-1.46-3.73-1.46-1.82 0-2.67.91-2.67 2.07 0 1.43 1.73 1.98 3.55 2.64 2.34.88 4.92 1.91 4.92 5.07 0 2.79-2.22 5.07-6.35 5.07-2.31.01-4.68-.96-6.29-2.3zm16.34-22.29H595v6.41l-.12 3.31c1.46-1.4 3.13-2.64 5.41-2.64 3.55 0 5.13 2.37 5.13 6.62v10.51h-3.49v-10.08c0-2.88-.85-4.04-2.82-4.04-1.55 0-2.61.79-4.1 2.28v11.84h-3.46V88.06zm17.69 15.89c0-5.59 3.74-8.81 7.87-8.81s7.87 3.22 7.87 8.81c0 5.53-3.74 8.71-7.87 8.71s-7.87-3.19-7.87-8.71zm12.15 0c0-3.55-1.64-5.92-4.28-5.92-2.61 0-4.25 2.37-4.25 5.92 0 3.52 1.64 5.86 4.25 5.86 2.64 0 4.28-2.34 4.28-5.86zm7.69-8.38h2.85l.28 1.82h.09c1.46-1.21 3.28-2.25 5.13-2.25 4.25 0 6.62 3.37 6.62 8.5 0 5.74-3.43 9.02-7.2 9.02-1.49 0-2.98-.67-4.4-1.88l.09 2.85v5.4h-3.46V95.57zm11.36 8.14c0-3.49-1.12-5.65-3.92-5.65-1.31 0-2.55.67-3.98 2.04v8.17c1.31 1.12 2.61 1.52 3.64 1.52 2.44-.01 4.26-2.17 4.26-6.08zm-483.08 36.7c0-5.59 3.74-8.81 7.87-8.81s7.86 3.22 7.86 8.81c0 5.53-3.73 8.71-7.86 8.71s-7.87-3.18-7.87-8.71zm12.15 0c0-3.55-1.64-5.92-4.28-5.92-2.61 0-4.25 2.37-4.25 5.92 0 3.52 1.64 5.86 4.25 5.86 2.64 0 4.28-2.34 4.28-5.86zm7.69-8.38h2.85l.27 2.31h.09c1.55-1.49 3.25-2.73 5.53-2.73 3.55 0 5.13 2.37 5.13 6.62v10.51h-3.49v-10.08c0-2.88-.85-4.04-2.82-4.04-1.55 0-2.61.79-4.1 2.28v11.84h-3.46v-16.71zm25.79-7.5h3.46v6.41l-.12 3.31c1.46-1.4 3.13-2.64 5.41-2.64 3.55 0 5.13 2.37 5.13 6.62v10.51h-3.49v-10.08c0-2.88-.85-4.04-2.82-4.04-1.55 0-2.61.79-4.1 2.28v11.84h-3.46v-24.21zm18.66 18v-10.51h3.49v10.08c0 2.88.82 4.01 2.79 4.01 1.55 0 2.61-.73 4.01-2.49v-11.6h3.49v16.7h-2.85l-.27-2.52h-.09c-1.52 1.76-3.16 2.91-5.47 2.91-3.55.02-5.1-2.32-5.1-6.58zm19.05-10.5h2.85l.28 2.34h.09c1.43-1.52 3.1-2.76 5.16-2.76 2.49 0 3.89 1.15 4.62 3.07 1.64-1.76 3.34-3.07 5.44-3.07 3.49 0 5.13 2.37 5.13 6.62v10.51h-3.49v-10.08c0-2.88-.91-4.04-2.79-4.04-1.15 0-2.37.76-3.77 2.28v11.84h-3.49v-10.08c0-2.88-.88-4.04-2.8-4.04-1.12 0-2.37.76-3.77 2.28v11.84h-3.46v-16.71zm27.65 12.27c0-3.58 3.04-5.44 9.99-6.2-.03-1.94-.73-3.64-3.19-3.64-1.76 0-3.4.79-4.83 1.7l-1.31-2.37c1.73-1.09 4.07-2.19 6.74-2.19 4.16 0 6.07 2.64 6.07 7.07v10.05h-2.85l-.3-1.91h-.09c-1.52 1.31-3.31 2.31-5.31 2.31-2.88.01-4.92-1.88-4.92-4.82zm10 .12v-4.1c-4.95.61-6.62 1.85-6.62 3.74 0 1.64 1.12 2.31 2.61 2.31 1.45-.01 2.64-.71 4.01-1.95zm8.45-12.39h2.85l.28 2.31h.09c1.55-1.49 3.25-2.73 5.53-2.73 3.55 0 5.13 2.37 5.13 6.62v10.51h-3.49v-10.08c0-2.88-.85-4.04-2.82-4.04-1.55 0-2.61.79-4.1 2.28v11.84h-3.46v-16.71zm17.74 6.83h8.02v2.58h-8.02v-2.58zm10.88 1.55c0-5.59 3.86-8.81 8.26-8.81 2.12 0 3.67.85 4.89 1.91l-1.73 2.28c-.91-.82-1.85-1.31-3.01-1.31-2.79 0-4.8 2.37-4.8 5.92 0 3.52 1.91 5.86 4.71 5.86 1.4 0 2.64-.67 3.65-1.52l1.43 2.31a8.128 8.128 0 0 1-5.41 2.07c-4.53.01-7.99-3.18-7.99-8.71zm14.92 0c0-5.59 3.74-8.81 7.87-8.81s7.87 3.22 7.87 8.81c0 5.53-3.74 8.71-7.87 8.71s-7.87-3.18-7.87-8.71zm12.15 0c0-3.55-1.64-5.92-4.28-5.92-2.61 0-4.25 2.37-4.25 5.92 0 3.52 1.64 5.86 4.25 5.86 2.64 0 4.28-2.34 4.28-5.86zm7.69-8.38h2.85l.28 2.34h.09c1.43-1.52 3.1-2.76 5.16-2.76 2.49 0 3.89 1.15 4.62 3.07 1.64-1.76 3.34-3.07 5.44-3.07 3.49 0 5.13 2.37 5.13 6.62v10.51h-3.49v-10.08c0-2.88-.91-4.04-2.79-4.04-1.15 0-2.37.76-3.77 2.28v11.84h-3.49v-10.08c0-2.88-.88-4.04-2.8-4.04-1.12 0-2.37.76-3.77 2.28v11.84h-3.46v-16.71zm28.62 0h2.85l.28 1.82h.09c1.46-1.21 3.28-2.25 5.13-2.25 4.25 0 6.62 3.37 6.62 8.5 0 5.74-3.43 9.02-7.2 9.02-1.49 0-2.98-.67-4.4-1.88l.09 2.85v5.4h-3.46v-23.46zm11.36 8.14c0-3.49-1.12-5.65-3.92-5.65-1.31 0-2.55.67-3.98 2.04v8.17c1.31 1.12 2.61 1.52 3.64 1.52 2.44-.01 4.26-2.17 4.26-6.08zm7.57 2.36v-10.51h3.49v10.08c0 2.88.82 4.01 2.79 4.01 1.55 0 2.61-.73 4.01-2.49v-11.6h3.49v16.7h-2.85l-.27-2.52h-.09c-1.52 1.76-3.16 2.91-5.47 2.91-3.55.02-5.1-2.32-5.1-6.58zm19.6.73v-8.44h-2.43v-2.61l2.58-.18.39-4.62h2.95v4.62h4.34v2.8h-4.34v8.47c0 2.01.7 3.04 2.43 3.04.58 0 1.31-.18 1.79-.39l.64 2.58c-.94.31-2.07.61-3.28.61-3.76-.01-5.07-2.35-5.07-5.88zm9.79-2.85c0-5.44 3.71-8.81 7.62-8.81 4.43 0 6.8 3.19 6.8 7.93 0 .67-.06 1.37-.15 1.76h-10.84c.27 3.19 2.28 5.1 5.16 5.1 1.49 0 2.76-.46 3.98-1.25l1.22 2.22c-1.55 1.03-3.46 1.76-5.65 1.76-4.53.01-8.14-3.21-8.14-8.71zm11.41-1.52c0-2.88-1.31-4.55-3.73-4.55-2.1 0-3.95 1.61-4.28 4.55h8.01zm6.94-6.86h2.85l.28 3.01h.09c1.18-2.15 2.95-3.43 4.74-3.43.82 0 1.36.12 1.88.36l-.64 3.04c-.58-.18-1-.27-1.67-.27-1.37 0-3.01.94-4.07 3.58v10.42h-3.46v-16.71zm18.78-5.19c0-1.25.94-2.07 2.22-2.07 1.28 0 2.25.82 2.25 2.07 0 1.21-.97 2.07-2.25 2.07-1.28-.01-2.22-.86-2.22-2.07zm.48 5.19h3.46v16.7h-3.46v-16.7zm8.72 0h2.85l.28 2.31h.09c1.55-1.49 3.25-2.73 5.53-2.73 3.55 0 5.13 2.37 5.13 6.62v10.51h-3.49v-10.08c0-2.88-.85-4.04-2.82-4.04-1.55 0-2.61.79-4.1 2.28v11.84h-3.46v-16.71zm19.51 11.23v-8.44h-2.43v-2.61l2.58-.18.39-4.62h2.95v4.62h4.34v2.8h-4.34v8.47c0 2.01.7 3.04 2.43 3.04.58 0 1.31-.18 1.79-.39l.64 2.58c-.94.31-2.07.61-3.28.61-3.76-.01-5.07-2.35-5.07-5.88zm9.78-2.85c0-5.44 3.71-8.81 7.62-8.81 4.43 0 6.8 3.19 6.8 7.93 0 .67-.06 1.37-.15 1.76h-10.84c.27 3.19 2.28 5.1 5.16 5.1 1.49 0 2.76-.46 3.98-1.25l1.22 2.22c-1.55 1.03-3.46 1.76-5.65 1.76-4.52.01-8.14-3.21-8.14-8.71zm11.42-1.52c0-2.88-1.31-4.55-3.73-4.55-2.1 0-3.95 1.61-4.28 4.55h8.01zm6.93-6.86h2.85l.28 3.01h.09c1.18-2.15 2.95-3.43 4.74-3.43.82 0 1.36.12 1.88.36l-.64 3.04c-.58-.18-1-.27-1.67-.27-1.37 0-3.01.94-4.07 3.58v10.42h-3.46v-16.71zm10.61 12.27c0-3.58 3.04-5.44 9.99-6.2-.03-1.94-.73-3.64-3.19-3.64-1.76 0-3.4.79-4.83 1.7l-1.31-2.37c1.73-1.09 4.07-2.19 6.74-2.19 4.16 0 6.07 2.64 6.07 7.07v10.05h-2.85l-.3-1.91h-.09c-1.52 1.31-3.31 2.31-5.31 2.31-2.89.01-4.92-1.88-4.92-4.82zm9.99.12v-4.1c-4.95.61-6.62 1.85-6.62 3.74 0 1.64 1.12 2.31 2.61 2.31 1.46-.01 2.64-.71 4.01-1.95zm7.27-4.01c0-5.59 3.86-8.81 8.26-8.81 2.12 0 3.67.85 4.89 1.91l-1.73 2.28c-.91-.82-1.85-1.31-3.01-1.31-2.79 0-4.8 2.37-4.8 5.92 0 3.52 1.91 5.86 4.71 5.86 1.4 0 2.64-.67 3.65-1.52l1.43 2.31a8.128 8.128 0 0 1-5.41 2.07c-4.53.01-7.99-3.18-7.99-8.71zm17.11 2.85v-8.44h-2.43v-2.61l2.58-.18.39-4.62h2.95v4.62h4.34v2.8h-4.34v8.47c0 2.01.7 3.04 2.43 3.04.58 0 1.31-.18 1.79-.39l.64 2.58c-.94.31-2.07.61-3.28.61-3.77-.01-5.07-2.35-5.07-5.88zm11-16.42c0-1.25.94-2.07 2.22-2.07s2.25.82 2.25 2.07c0 1.21-.97 2.07-2.25 2.07s-2.22-.86-2.22-2.07zm.48 5.19H581v16.7h-3.46v-16.7zm7.54 8.38c0-5.59 3.74-8.81 7.87-8.81s7.87 3.22 7.87 8.81c0 5.53-3.74 8.71-7.87 8.71-4.14.01-7.87-3.18-7.87-8.71zm12.14 0c0-3.55-1.64-5.92-4.28-5.92-2.61 0-4.25 2.37-4.25 5.92 0 3.52 1.64 5.86 4.25 5.86 2.64 0 4.28-2.34 4.28-5.86zm7.69-8.38h2.85l.28 2.31h.09c1.55-1.49 3.25-2.73 5.53-2.73 3.55 0 5.13 2.37 5.13 6.62v10.51h-3.49v-10.08c0-2.88-.85-4.04-2.82-4.04-1.55 0-2.61.79-4.1 2.28v11.84h-3.46v-16.71zM188.88 39.68h-5.91c.89.72 1.81 1.54 2.36 2.15l-2.46 2.15h2.8v8.64h-10.83v2.02h12.5s-.03.99-.1 1.47c-.34 4.54-.75 6.76-1.64 7.65-.72.82-1.54 1.09-2.6 1.19-.96.1-2.56.14-4.34.07-.07-1.2-.48-2.7-1.13-3.69 1.44.14 2.87.17 3.49.14.51 0 .85-.03 1.16-.31.34-.34.61-1.26.82-3.14h-8.16v8.44h-4V59.8c-2.87 2.8-6.66 5.12-10.38 6.53-.58-.99-1.71-2.46-2.56-3.21 3.55-1.06 7.24-2.94 9.91-5.09h-7.34c.51-2.33 1.02-5.88 1.26-8.75h9.12v-1.95h-10.38v-3.35h6.97c-.75-.96-2.08-2.22-3.14-3.14l1.3-1.13h-2.02c-1.09 1.71-2.32 3.25-3.48 4.41-.58-.68-1.95-2.12-2.73-2.73 2.02-1.77 3.89-4.47 4.95-7.17l3.59 1.03c-.17.45-.38.92-.61 1.37h7.52v3.11h-4.88c.92.79 1.81 1.64 2.32 2.26l-2.19 2.02h14.42c-.75-.92-2.22-2.15-3.31-3.04l1.47-1.26h-2.8c-.82 1.3-1.74 2.43-2.66 3.32-.68-.68-2.15-1.85-3.04-2.36 1.88-1.61 3.42-4 4.27-6.42l3.69.92c-.17.48-.38.99-.58 1.47h9.4v3.04zm-18.04 12.95h-5.57c-.1.68-.17 1.37-.27 2.02h5.84v-2.02zm10.8-5.29h-6.8v1.95h6.8v-1.95zm44.77 3.69h-13.36v15.4h-4.44v-15.4h-13.15v-4.24h13.15V34.56h4.44v12.23h13.36v4.24zm35.55-4.89h-22c0 5.91-.58 14.79-4.17 20.43-.79-.65-2.6-1.74-3.62-2.12 3.42-5.23 3.66-12.88 3.66-18.31V36.1h26.13v10.04zm-4.1-6.39h-17.9v2.7h17.9v-2.7zm4.71 9.09v17.63h-3.86v-1.23h-17.73v-16.4h3.89v12.85h13.84V48.84h3.86zM250 56.6v-3.35h-3.38v-3.28H250v-3.01h3.69v3.01h3.42v3.28h-3.42v3.35h4.07v3.28h-11.89V56.6H250zm38.01-22.04c-.03 1.44-.1 3.28-.24 5.33.48 4.61 2.56 17.49 14.48 22.75-1.26.99-2.42 2.36-2.97 3.52-7.58-3.62-11.38-10.28-13.36-16.16-1.88 6.01-5.47 12.2-12.57 16.36-.72-1.09-2.02-2.39-3.38-3.32 13.87-7.41 13.22-22.72 13.36-28.49h4.68zm27.93 19.3c-.28-.82-.82-2.08-1.4-3.31v15.88h-3.49V53.25c-.68 2.39-1.47 4.55-2.32 6.11-.31-1.16-1.06-2.97-1.57-4.03 1.57-2.43 2.94-6.83 3.69-10.69h-2.8v-3.76h3v-6.35h3.49v6.35h2.29v3.76h-2.29v1.5c.75 1.06 2.7 4.2 3.14 5.02l-1.74 2.7zm21.63 2.36c-.99 1.88-2.26 3.55-3.76 5.02.65.72 1.33 1.13 2.12 1.23.65.07 1.06-1.16 1.3-3.55.58.79 1.91 1.78 2.56 2.15-.89 4.24-2.26 5.43-3.72 5.33-2.01-.17-3.69-1.2-5.02-2.9-1.61 1.13-3.45 2.08-5.4 2.84-.44-.72-1.4-1.95-2.08-2.6 2.19-.75 4.17-1.81 5.88-3.07-.72-1.57-1.27-3.38-1.74-5.47h-4.65c-.03.24-.03.51-.07.75 1.4 1.13 3.35 2.7 4.34 3.69l-2.46 2.39c-.58-.68-1.57-1.57-2.56-2.46-.79 2.43-2.19 4.88-4.65 6.83-.51-.65-1.95-1.91-2.7-2.32 3.62-2.66 4.55-6.15 4.65-8.88h-2.02v-3.11h9.53c-.58-3.48-.92-7.52-1.16-11.96-1.33 2.53-3.01 5.09-4.65 7.1l1.91-.21c-.17-.51-.31-1.06-.45-1.54l2.36-.61c.55 1.61 1.13 3.66 1.37 4.92l-2.53.75c-.04-.31-.1-.72-.21-1.16-4.1.61-4.88.85-5.36 1.06-.17-.55-.61-2.02-.96-2.77.58-.14 1.13-.68 1.71-1.5.31-.38.92-1.3 1.64-2.5-1.81.24-2.39.41-2.73.58-.17-.61-.65-1.98-.96-2.73.45-.14.85-.55 1.23-1.23.38-.62 1.64-3.08 2.29-5.47l2.9.75c-.78 1.98-1.88 4.07-2.94 5.71l1.54-.14c.34-.68.68-1.4.95-2.12l2.84.96c-.07-1.64-.14-3.42-.21-5.19h3.35c.14 6.7.58 12.64 1.43 17.29h3.14c-.58-.51-1.23-1.02-1.77-1.47l1.54-1.26c-1.61.27-2.12.45-2.43.61-.14-.58-.61-2.05-.92-2.8.55-.17 1.06-.72 1.67-1.57.31-.34.92-1.27 1.57-2.43-1.78.24-2.33.41-2.66.58-.21-.62-.65-1.95-.99-2.73.45-.1.82-.55 1.2-1.16.34-.58 1.47-2.9 2.05-5.16l2.9.79c-.68 1.84-1.67 3.72-2.66 5.26l1.54-.1c.31-.68.61-1.44.89-2.12l2.94.96c-1.26 2.56-2.94 5.2-4.54 7.24l1.88-.21c-.17-.48-.31-.99-.48-1.44l2.33-.65c.58 1.6 1.3 3.72 1.57 4.95l-2.43.85c-.07-.41-.17-.89-.31-1.4-.85.14-1.57.24-2.15.34.92.68 2.02 1.5 2.6 2.09l-.89.82h2.73v3.11h-3.96l2.73 1.04zm-6.42-1.03c.27 1.13.58 2.08.92 2.97.79-.92 1.47-1.91 2.02-2.97h-2.94zm45.69 6.43v3.96h-31.05v-3.96h18.86c.21-1.4.45-2.87.68-4.41h-15.17c1.3-4.58 2.94-11.68 3.93-17.42h-7.28V35.9h29v3.89h-17.29a132.4 132.4 0 0 0-.85 4.48h9.8l.68-.17 3.11.38c-.51 4.92-1.5 11.54-2.39 17.15h7.97zm-10.93-8.2c.28-1.88.51-3.76.72-5.37h-9.77c-.41 1.88-.82 3.72-1.2 5.37h10.25zm48.12-11.21s-.03 1.33-.03 1.81c-.31 13.97-.58 18.93-1.67 20.5-.78 1.13-1.57 1.47-2.7 1.71-1.03.2-2.6.17-4.24.14-.07-1.13-.51-2.77-1.2-3.89 1.5.14 2.8.17 3.45.17.51 0 .86-.14 1.16-.58.72-.92 1.06-5.09 1.26-16.12h-3.07c-.45 9.15-2.01 16.19-7.76 20.73-.51-.82-1.5-1.95-2.39-2.7-4.92.51-9.84 1.03-13.53 1.33l-.48-3.42c1.91-.14 4.31-.31 6.93-.48v-2.05h-6.01v-2.87h6.01v-1.33h-5.87V44.6h5.87v-1.33h-6.73v-2.94h6.73v-1.37c-1.98.14-3.93.24-5.77.27-.14-.82-.51-2.08-.89-2.87 5.05-.28 10.97-.85 14.72-1.67l1.77 3.04c-1.81.38-3.93.68-6.15.92v1.67H400v1.88h3.21c.03-2.26.03-4.61.03-7.14h3.9c0 2.5 0 4.88-.07 7.14h6.96zm-26.92 6.46h2.66v-1.5h-2.66v1.5zm2.67 3.96v-1.54h-2.66v1.54h2.66zm3.69 8.47c1.95-.13 3.96-.31 5.94-.48 2.66-3.69 3.48-8.57 3.72-14.69h-3.11v-2.66h-6.56v1.33h6.05v10.56h-6.05v1.33h6.18v2.87h-6.18v1.74zm2.66-12.43v-1.5h-2.66v1.5h2.66zm-2.66 2.42v1.54h2.66v-1.54h-2.66zm58.54 8.89v4.1h-31.05v-4.1h13.02V42.31H422.8v-4.24h27.29v4.24h-11.48v17.66h13.4zm17.48-24.09c-.89 2.39-2.02 4.82-3.28 7.11v23.4h-4.1V49.32c-.72.85-1.44 1.71-2.12 2.46-.38-.99-1.54-3.32-2.25-4.34 3.11-3.07 6.08-7.93 7.79-12.78l3.96 1.23zm10.82 8.07v3.59h8.85v3.69h-8.85v3.86h9.29v3.76h-9.29v7.58h-4.17V43.96h-1.3c-1.37 2.53-2.94 4.85-4.48 6.63-.65-.75-2.26-2.19-3.11-2.84 3.01-3.07 5.71-7.99 7.24-12.88l3.93.99c-.48 1.43-1.02 2.83-1.67 4.24h13.26v3.86h-9.7zm35.83.17v4.13h9.77s-.03 1.19-.07 1.71c-.41 9.39-.82 13.19-1.95 14.48-.79 1.06-1.64 1.4-2.9 1.54-1.02.17-2.87.17-4.68.1-.07-1.2-.61-2.87-1.33-4 1.74.14 3.35.17 4.1.17.61 0 .96-.1 1.3-.48.65-.68 1.02-3.35 1.3-9.77h-5.71c-.58 4.95-2.6 10.42-8.98 14.41-.72-.89-2.05-2.08-3.11-2.8 7.24-4.61 8.2-10.66 8.2-15.17v-4.34h-4.95v2.43h-3.28v8.03c1.2-.41 2.36-.85 3.52-1.23l.78 3.76c-4.03 1.61-8.33 3.21-11.75 4.51l-.92-4.27c1.23-.34 2.73-.82 4.41-1.4v-9.39h-3.76v-3.82h3.76v-7.55h3.96v7.55h3.18v-2.5h9.12c-.27-1.37-.92-3.52-1.47-5.13l3.82-.92c.62 1.61 1.37 3.79 1.71 5.09l-3.52.96h10.79v3.89h-11.34z" fill="#fff"/></g></svg>