<svg id="圖層_1" data-name="圖層 1" xmlns="http://www.w3.org/2000/svg" viewBox="0 0 368 80"><defs><style>.cls-1{fill:#fff}</style><radialGradient id="未命名漸層_2" cx="-469.02" cy="621.52" r="11.93" gradientTransform="matrix(.62 -.77 .93 .8 -190.12 -821.23)" gradientUnits="userSpaceOnUse"><stop offset="0" stop-color="#fff" stop-opacity=".5"/><stop offset=".15" stop-color="#fff" stop-opacity=".64"/><stop offset=".36" stop-color="#fff" stop-opacity=".79"/><stop offset=".55" stop-color="#fff" stop-opacity=".91"/><stop offset=".71" stop-color="#fff" stop-opacity=".98"/><stop offset=".83" stop-color="#fff"/></radialGradient></defs><g id="horizontal_zh" data-name="horizontal zh"><path class="cls-1" d="M187.11 25.68H198a48.72 48.72 0 0 1-12.92 19.46l1.62 1.74a60.35 60.35 0 0 0 6.57-5.66v17.65h26.19V35.41h-21a44.33 44.33 0 0 0 4.54-9.66h17.65v-3H187v2.9zm27.4 13.07v16.92H197.7V38.75zM287.81 21l-2.76.65a35.73 35.73 0 0 1 1.56 3.78h-6.85v3.19h16.8v-3.23H291a30.67 30.67 0 0 0-3.19-4.39zm-6.15 10.71h13.2v3.12h-13.2zm-1.2 27.52h15v-13.8h-15zm5.09-10.53h5.15v8h-5.15zm-3.89-10.17h13.2v3.12h-13.2zm28.11-5.08V21.76h-4.81v11.69h-7.62v3.41h7.62v22.3h4.81v-22.3h7.62v-3.41h-7.62zM144.89 51.17c.63-1.89 1.27-3.41 2.26-11h-5.58c.92-1 4-3.34 5.79-10.67h-9.11v2.68h4.59a20.7 20.7 0 0 1-5.3 8.28v2.47h5.23c-.78 6.54-2.61 10.6-5.37 14.23l1.7 1.84a23.53 23.53 0 0 0 4.09-4.36c3 3.64 8.12 4.87 15.18 4.87 10.1 0 15.82 0 17.52-.07l.7-2.91c-1 0-6.49-.21-18.5-.21a17.91 17.91 0 0 1-13.2-5.15z"/><path class="cls-1" d="M147.5 48.92l2.12 2c3.1-3.85 4.38-9.29 4.59-17.21h2.89c-.07 3.27-.14 6.83-.28 9.37s-.28 6.32-.42 6.68a1.34 1.34 0 0 1-.71.8 12 12 0 0 1-2.82.8l.7 2a13.89 13.89 0 0 0 4.66-.58 3.74 3.74 0 0 0 1.84-1.78c.35-.79.56-3.48.85-7.33s.21-5.88.28-12.35h-6.85c.07-1.81.07-3.84.07-3.84h6.78v-2.74H157a26.37 26.37 0 0 0-2.75-4.51l-2.83.73a18.7 18.7 0 0 1 1.7 3.85h-5.23v2.69h2.62a81.22 81.22 0 0 1-.78 13.36 25.35 25.35 0 0 1-2.23 8.06zM146.09 26a22.74 22.74 0 0 0-5.37-5l-1.84 1.23a42.66 42.66 0 0 1 4.1 5.45zm20.47.7h9.82V24h-8.33a12 12 0 0 0 1-2.11l-3.25-1.16a22.27 22.27 0 0 1-4 6.68l1.7 1.38a10.23 10.23 0 0 0 3.06-2.09zm5.58 12.3c0-2.25 2.33-3.27 3.46-8.42h-11.44v2.54h6.22c-.71 1.6-2.47 3.56-2.47 5.59v2.18h-5.3v2.51h5.3v7.12c0 .65-.36.79-1.13 1a16.13 16.13 0 0 1-3.18.58l.78 2.18a17.46 17.46 0 0 0 6-.58c1.13-.43 1.69-1.74 1.69-3.78V43.4h4.73v-2.47h-4.73zm82.34-6.49c.91-1.31 1.62-3.56 1.69-7h4.73v6.76a3.25 3.25 0 0 0 .92 2.25 2.46 2.46 0 0 0 2 1l4.8.21.42-2.46a9 9 0 0 1-3.17-.8 1 1 0 0 1-.43-.88v-9.25h-13v2.25c.14 4.87-1.06 7-4.38 9.51l1.4 1.9a10.87 10.87 0 0 0 5.02-3.49zm-21.05-.8H246v3.12h-12.57zm-1.2 27.52h14.41v-13.8h-14.41zm4.59-10.53H242v8h-5.16zm-3.39-10.17H246v3.12h-12.57zM262 52.91a22.5 22.5 0 0 0 5.79-15H250v3h13.13a16.79 16.79 0 0 1-4 8.57 6.89 6.89 0 0 1-.71.73 24.53 24.53 0 0 1-1.76-2 29.07 29.07 0 0 1-3.61-5.66l-3.46 1.74a27.33 27.33 0 0 0 4.17 6.46 16.63 16.63 0 0 0 2 2 20.76 20.76 0 0 1-7.7 3.85l1.05 2.4a20.21 20.21 0 0 0 10.24-3.7 29.77 29.77 0 0 0 9 3.7l.77-2.18a23.5 23.5 0 0 1-7.34-3.7zM239 21l-2.75.65a35.67 35.67 0 0 1 1.55 3.78h-6.2v3.19h16.17v-3.23h-5.58A26.73 26.73 0 0 0 239 21zM75.4 39.77l-6.56 8.06a5.15 5.15 0 0 1-7.35.65 5.5 5.5 0 0 1-.63-7.55L77.17 21H65.66L54.08 35.12A14.67 14.67 0 0 0 56 55.38a13.75 13.75 0 0 0 19.56-1.74l6.56-8.06zm34.46 22.07l13.98-17.13-6.77-5.81-18.72 22.94h11.51z"/><path d="M78.72 35.7l-1.55 1.89L84 43.4l1.55-1.89a5.14 5.14 0 0 1 7.35-.65 13.87 13.87 0 0 0 19.77-1.75l2-2.46-6.77-5.81-2 2.39a5.15 5.15 0 0 1-7.35.66 13.8 13.8 0 0 0-19.83 1.81" fill="url(#未命名漸層_2)"/><path class="cls-1" d="M98.42 33.89a5.51 5.51 0 0 1-.63-7.56l2-2.47-6.79-5.8-2 2.46a14.73 14.73 0 0 0 1.7 20.26 5.5 5.5 0 0 1 .64 7.56L82.4 61.84h11.5l6.22-7.62a14.68 14.68 0 0 0-1.7-20.33"/></g></svg>