<svg xmlns="http://www.w3.org/2000/svg" xmlns:xlink="http://www.w3.org/1999/xlink" viewBox="0 0 645 575"><defs><style>.cls-1{fill:none}.cls-3{fill:url(#未命名漸層_2)}.cls-5{fill:url(#未命名漸層_2-3)}.cls-6{fill:url(#未命名漸層_2-4)}.cls-7{fill:url(#未命名漸層_2-5)}.cls-8{fill:url(#未命名漸層_2-6)}.cls-9{fill:url(#未命名漸層_2-7)}.cls-10{fill:url(#未命名漸層_2-8)}.cls-11{fill:url(#未命名漸層_2-9)}.cls-12{fill:url(#未命名漸層_2-10)}.cls-13{fill:url(#未命名漸層_2-11)}.cls-14{fill:url(#未命名漸層_2-12)}.cls-15{fill:url(#未命名漸層_2-13)}.cls-16{fill:url(#未命名漸層_2-14)}.cls-17{fill:url(#未命名漸層_2-15)}.cls-18{fill:url(#未命名漸層_2-16)}.cls-19{fill:url(#未命名漸層_2-17)}.cls-20{fill:url(#未命名漸層_2-18)}.cls-21{fill:url(#未命名漸層_2-19)}.cls-22{fill:url(#未命名漸層_2-20)}.cls-23{fill:url(#未命名漸層_2-21)}.cls-24{fill:url(#未命名漸層_2-22)}.cls-25{fill:url(#未命名漸層_2-23)}.cls-26{fill:url(#未命名漸層_2-24)}.cls-27{fill:url(#未命名漸層_2-25)}.cls-28{fill:url(#未命名漸層_2-26)}.cls-30{fill:url(#未命名漸層_2-30)}.cls-32{fill:url(#未命名漸層_2-32)}.cls-34{fill:url(#未命名漸層_2-36)}.cls-35{fill:url(#未命名漸層_2-37)}.cls-36{fill:url(#未命名漸層_2-38)}.cls-37{fill:url(#未命名漸層_2-39)}.cls-38{fill:url(#未命名漸層_2-40)}.cls-39{fill:url(#未命名漸層_2-41)}.cls-40{fill:url(#未命名漸層_2-42)}.cls-41{fill:url(#未命名漸層_2-43)}</style><clipPath id="clip-path"><path class="cls-1" d="M-52.5-959.64h1440v900.1h-1440z"/></clipPath><linearGradient id="未命名漸層_2" x1="175.85" y1="76.11" x2="175.85" y2="463.37" gradientUnits="userSpaceOnUse"><stop offset="0" stop-color="#21acda"/><stop offset="1" stop-color="#e62676"/></linearGradient><linearGradient id="未命名漸層_2-2" x1="228.1" y1="76.11" x2="228.1" y2="463.37" xlink:href="#未命名漸層_2"/><linearGradient id="未命名漸層_2-3" x1="165.36" y1="76.11" x2="165.36" y2="463.37" xlink:href="#未命名漸層_2"/><linearGradient id="未命名漸層_2-4" x1="186.34" y1="76.11" x2="186.34" y2="463.37" xlink:href="#未命名漸層_2"/><linearGradient id="未命名漸層_2-5" x1="217.8" y1="76.11" x2="217.8" y2="463.37" xlink:href="#未命名漸層_2"/><linearGradient id="未命名漸層_2-6" x1="207.31" y1="76.11" x2="207.31" y2="463.37" xlink:href="#未命名漸層_2"/><linearGradient id="未命名漸層_2-7" x1="196.82" y1="76.11" x2="196.82" y2="463.37" xlink:href="#未命名漸層_2"/><linearGradient id="未命名漸層_2-8" x1="112.92" y1="76.11" x2="112.92" y2="463.37" xlink:href="#未命名漸層_2"/><linearGradient id="未命名漸層_2-9" x1="91.95" y1="76.11" x2="91.95" y2="463.37" xlink:href="#未命名漸層_2"/><linearGradient id="未命名漸層_2-10" x1="81.46" y1="76.11" x2="81.46" y2="463.37" xlink:href="#未命名漸層_2"/><linearGradient id="未命名漸層_2-11" x1="102.44" y1="76.11" x2="102.44" y2="463.37" xlink:href="#未命名漸層_2"/><linearGradient id="未命名漸層_2-12" x1="70.97" y1="76.11" x2="70.97" y2="463.37" xlink:href="#未命名漸層_2"/><linearGradient id="未命名漸層_2-13" x1="133.9" y1="76.11" x2="133.9" y2="463.37" xlink:href="#未命名漸層_2"/><linearGradient id="未命名漸層_2-14" x1="154.87" y1="76.11" x2="154.87" y2="463.37" xlink:href="#未命名漸層_2"/><linearGradient id="未命名漸層_2-15" x1="144.39" y1="76.11" x2="144.39" y2="463.37" xlink:href="#未命名漸層_2"/><linearGradient id="未命名漸層_2-16" x1="123.41" y1="76.11" x2="123.41" y2="463.37" xlink:href="#未命名漸層_2"/><linearGradient id="未命名漸層_2-17" x1="354.13" y1="76.11" x2="354.13" y2="463.37" xlink:href="#未命名漸層_2"/><linearGradient id="未命名漸層_2-18" x1="385.6" y1="76.11" x2="385.6" y2="463.37" xlink:href="#未命名漸層_2"/><linearGradient id="未命名漸層_2-19" x1="375.11" y1="76.11" x2="375.11" y2="463.37" xlink:href="#未命名漸層_2"/><linearGradient id="未命名漸層_2-20" x1="364.62" y1="76.11" x2="364.62" y2="463.37" xlink:href="#未命名漸層_2"/><linearGradient id="未命名漸層_2-21" x1="291.21" y1="76.11" x2="291.21" y2="463.37" xlink:href="#未命名漸層_2"/><linearGradient id="未命名漸層_2-22" x1="312.18" y1="76.11" x2="312.18" y2="463.37" xlink:href="#未命名漸層_2"/><linearGradient id="未命名漸層_2-23" x1="322.67" y1="76.11" x2="322.67" y2="463.37" xlink:href="#未命名漸層_2"/><linearGradient id="未命名漸層_2-24" x1="333.16" y1="76.11" x2="333.16" y2="463.37" xlink:href="#未命名漸層_2"/><linearGradient id="未命名漸層_2-25" x1="343.65" y1="76.11" x2="343.65" y2="463.37" xlink:href="#未命名漸層_2"/><linearGradient id="未命名漸層_2-26" x1="396.08" y1="76.11" x2="396.08" y2="463.37" xlink:href="#未命名漸層_2"/><linearGradient id="未命名漸層_2-27" x1="280.72" y1="76.14" x2="280.72" y2="463.4" xlink:href="#未命名漸層_2"/><linearGradient id="未命名漸層_2-30" x1="406.57" y1="76.11" x2="406.57" y2="463.37" xlink:href="#未命名漸層_2"/><linearGradient id="未命名漸層_2-31" x1="448.52" y1="76.11" x2="448.52" y2="463.37" xlink:href="#未命名漸層_2"/><linearGradient id="未命名漸層_2-32" x1="301.7" y1="76.11" x2="301.7" y2="463.37" xlink:href="#未命名漸層_2"/><linearGradient id="未命名漸層_2-33" x1="270.23" y1="76.11" x2="270.23" y2="463.37" xlink:href="#未命名漸層_2"/><linearGradient id="未命名漸層_2-36" x1="427.54" y1="76.11" x2="427.54" y2="463.37" xlink:href="#未命名漸層_2"/><linearGradient id="未命名漸層_2-37" x1="417.06" y1="76.11" x2="417.06" y2="463.37" xlink:href="#未命名漸層_2"/><linearGradient id="未命名漸層_2-38" x1="438.03" y1="76.11" x2="438.03" y2="463.37" xlink:href="#未命名漸層_2"/><linearGradient id="未命名漸層_2-39" x1="542.91" y1="76.11" x2="542.91" y2="463.37" xlink:href="#未命名漸層_2"/><linearGradient id="未命名漸層_2-40" x1="521.93" y1="76.11" x2="521.93" y2="463.37" xlink:href="#未命名漸層_2"/><linearGradient id="未命名漸層_2-41" x1="552.87" y1="76.11" x2="552.87" y2="463.37" xlink:href="#未命名漸層_2"/><linearGradient id="未命名漸層_2-42" x1="532.42" y1="76.11" x2="532.42" y2="463.37" xlink:href="#未命名漸層_2"/><linearGradient id="未命名漸層_2-43" x1="512.79" y1="76.11" x2="512.79" y2="463.37" xlink:href="#未命名漸層_2"/><linearGradient id="未命名漸層_2-48" x1="228.22" y1="76.11" x2="228.22" y2="463.37" xlink:href="#未命名漸層_2"/><linearGradient id="未命名漸層_2-82" x1="280.72" y1="76.11" x2="280.72" y2="463.37" xlink:href="#未命名漸層_2"/></defs><g id="圖層_3" data-name="圖層 3"><path class="cls-1" d="M385.93 179.67l-1.64-4.45v4.45h1.64zm-51.88 0h.23v-.7l-.23.7zm42.32 0v-25.9l-2.53-6.86v32.76h2.53zm-21.04 0v-63.61l-2.39 7.13v56.48h2.39zm-10.53 0v-32.16l-2.31 6.92v25.24h2.31zm21.05 0v-54.41l-2.46-6.66v61.07h2.46zM112.57 395.14v45.94c.22.56.47 1.1.71 1.64v-49.2c-.28.54-.49 1.07-.71 1.62z"/><path class="cls-3" d="M175.27 59.57h1.15v34.76h-1.15z"/><path fill="url(#未命名漸層_2-2)" d="M227.53 59.57h1.14v34.76h-1.14z"/><path class="cls-5" d="M164.82 59.57h1.08v189.71h-1.08z"/><path class="cls-6" d="M185.72 59.57h1.22v34.76h-1.22z"/><path class="cls-7" d="M217.08 59.57h1.44v34.76h-1.44z"/><path class="cls-8" d="M206.63 59.57H208v34.76h-1.37z"/><path class="cls-9" d="M196.18 59.57h1.29v34.76h-1.29z"/><path class="cls-10" d="M112.57 59.57h.71v34.76h-.71z"/><path class="cls-11" d="M91.67 59.57h.57v34.76h-.57z"/><path class="cls-12" d="M81.21 59.57h.49v34.76h-.49z"/><path class="cls-13" d="M102.12 59.57h.64v34.76h-.64z"/><path class="cls-14" d="M70.76 59.57h.42v34.76h-.42z"/><path class="cls-15" d="M133.47 59.57h.86v189.71h-.86z"/><path class="cls-16" d="M154.37 59.57h1v189.71h-1z"/><path class="cls-17" d="M143.92 59.57h.93v189.71h-.93z"/><path class="cls-18" d="M123.02 59.57h.79v34.76h-.79z"/><path class="cls-19" d="M355.33 116.06V60.57h-2.39v62.62l2.39-7.13z"/><path class="cls-20" d="M385.93 179.67h-1.64v33.13h2.61V72.02l-2.61-6.62v109.82l1.64 4.45z"/><path class="cls-21" d="M376.37 153.77v-93.2h-2.53v86.34l2.53 6.86z"/><path class="cls-22" d="M365.85 125.26V60.57h-2.46v58.03l2.46 6.66z"/><path class="cls-23" d="M292.18 250.28v-72.97l-1.94 5.45v67.52h1.94z"/><path class="cls-24" d="M313.23 241.88V118.45l-2.09 5.86v123.84l2.09-6.27z"/><path class="cls-25" d="M322.96 212.8h.79V89.02l-2.16 6.06v121.83l1.37-4.11z"/><path class="cls-26" d="M334.28 212.8v-33.13h-.23l.23-.7V60.57h-.35l-1.89 5.28V212.8h2.24z"/><path class="cls-27" d="M344.8 147.51V60.57h-2.31v93.86l2.31-6.92z"/><path class="cls-28" d="M397.42 212.8V98.78l-2.68-6.8V212.8h2.68z"/><path fill="url(#未命名漸層_2-27)" d="M281.66 250.28v-43.53l-1.88 5.24v38.29h1.88z"/><path class="cls-22" d="M363.39 179.67h2.46v33.13h-2.46z"/><path class="cls-27" d="M342.49 179.67h2.31v33.13h-2.31z"/><path class="cls-30" d="M407.94 239.29V125.55l-2.75-6.99v113.28l2.75 7.45z"/><path fill="url(#未命名漸層_2-31)" d="M447 224.88v25.4h3.04v-17.66l-3.04-7.74z"/><path class="cls-32" d="M302.71 250.28v-102.4l-2.02 5.66v96.74h2.02z"/><path fill="url(#未命名漸層_2-33)" d="M269.33 241.22v9.06h1.81v-14.1l-1.81 5.04z"/><path class="cls-19" d="M352.94 179.67h2.39v33.13h-2.39z"/><path class="cls-21" d="M373.84 179.67h2.53v33.13h-2.53z"/><path class="cls-34" d="M428.99 250.28v-71.2l-2.89-7.36v78.56h2.89z"/><path class="cls-35" d="M418.47 250.28v-97.96l-2.82-7.18v105.14h2.82z"/><path class="cls-36" d="M439.52 250.28v-44.43l-2.97-7.55v51.98h2.97z"/><path class="cls-37" d="M541.06 59.57h3.69v189.71h-3.69z"/><path class="cls-38" d="M520.16 59.57h3.55v189.71h-3.55z"/><path class="cls-39" d="M551.51 59.57h2.73v189.71h-2.73z"/><path class="cls-40" d="M530.61 59.57h3.62v189.71h-3.62z"/><path class="cls-41" d="M512.4 59.57h.78v189.71h-.78z"/><path class="cls-11" d="M91.67 351v136.52c.17.19.36.36.53.54V350.35z"/><path class="cls-13" d="M102.12 341.34v155.57l.64.47V340.84z"/><path class="cls-12" d="M81.21 364v110.45l.5.73V363.27c-.16.24-.34.47-.5.73z"/><path class="cls-7" d="M217.08 461.52V503c.48-.23 1-.48 1.44-.72v-41.51z"/><path d="M227.53 497.39l1.38-.8v-41.42l-1.38.76z" fill="url(#未命名漸層_2-48)"/><path class="cls-10" d="M112.57 441.08v62.6l.71.4v-61.36c-.28-.54-.49-1.08-.71-1.64z"/><path class="cls-8" d="M206.63 466.69v40.73l1.36-.52V466c-.46.27-.91.47-1.36.69z"/><path class="cls-3" d="M175.27 475.77v39.07l1.15-.12v-39.06z"/><path class="cls-5" d="M164.82 476v39.42h1.08V476z"/><path class="cls-16" d="M154.37 474.82v40.35l1 .06V475z"/><path class="cls-6" d="M185.72 474.18v39.14l1.23-.24v-39.16z"/><path class="cls-15" d="M133.47 466.42v45.5l.86.21V467z"/><path class="cls-17" d="M143.92 471.84v42.21l.93.14v-42z"/><path class="cls-18" d="M123 457.49v51.09l.78.28V458.3c-.24-.3-.51-.54-.78-.81z"/><path class="cls-9" d="M196.18 471.14v39.73l1.29-.37v-39.86z"/><path class="cls-14" d="M70.76 384.77v68.69c.14.39.28.78.43 1.18v-71c-.14.36-.29.75-.43 1.13z"/><path class="cls-16" d="M154.37 321.39v40.39l1-.2V321.3c-.37.02-.66.06-1 .09z"/><path class="cls-9" d="M196.18 324.23v40.66l1.29.42v-40.75z"/><path class="cls-17" d="M143.92 322.8v42l.93-.37v-41.8z"/><path class="cls-8" d="M206.63 327.34v41.53c.45.2.91.38 1.36.59v-41.61c-.45-.17-.9-.35-1.36-.51z"/><path class="cls-6" d="M185.72 322.23v39.89l1.23.25v-40c-.41-.03-.82-.08-1.23-.14z"/><path class="cls-10" d="M113.28 333.79l-.71.39v61c.22-.55.47-1.08.71-1.62z"/><path class="cls-3" d="M175.27 321.15v39.48l1.15.09v-39.49z"/><path class="cls-5" d="M164.82 320.89v39.61l1.08-.06v-39.57z"/><path class="cls-18" d="M123 329v50l.78-.82v-49.53z"/><path class="cls-7" d="M217.08 374l1.44.78v-42.23l-1.44-.75z"/><path class="cls-15" d="M133.47 325.27v44.9l.86-.57V325z"/><path class="cls-21" d="M373.84 400.49h2.53v36.8h-2.53z"/><path class="cls-35" d="M415.65 324.31h2.82v189.71h-2.82z"/><path class="cls-34" d="M426.1 324.31h2.89v189.71h-2.89z"/><path class="cls-22" d="M363.39 400.49h2.46v36.8h-2.46z"/><path class="cls-30" d="M405.2 324.31h2.75v189.71h-2.75z"/><path class="cls-19" d="M352.94 400.49h2.39v36.8h-2.39z"/><path class="cls-36" d="M436.55 324.31h2.97v189.71h-2.97z"/><path class="cls-28" d="M394.74 400.49h2.68v36.8h-2.68z"/><path class="cls-27" d="M342.49 400.49h2.31v36.8h-2.31z"/><path class="cls-23" d="M290.23 324.31h1.95v189.71h-1.95z"/><path class="cls-20" d="M384.29 400.49h2.6v36.8h-2.6z"/><path fill="url(#未命名漸層_2-82)" d="M279.78 324.31h1.88v189.71h-1.88z"/><path class="cls-32" d="M300.69 324.31h2.02v189.71h-2.02z"/><path class="cls-26" d="M332.04 400.49h2.24v36.8h-2.24z"/><path class="cls-24" d="M311.14 324.31h2.09v189.71h-2.09z"/><path class="cls-25" d="M321.59 400.49h2.17v36.8h-2.17z"/><path class="cls-39" d="M551.51 323.31h2.73v189.71h-2.73z"/><path class="cls-37" d="M541.06 323.31h3.69v189.71h-3.69z"/><path class="cls-40" d="M530.61 323.31h3.62v189.71h-3.62z"/><path class="cls-41" d="M512.4 323.31h.78v189.71h-.78z"/><path class="cls-38" d="M520.16 323.31h3.55v189.71h-3.55z"/></g></svg>